<svg version="1.1" xmlns="http://www.w3.org/2000/svg" width="1619.92pt" height="1413pt" viewBox="0 0 1619.92 1413"><style type="text/css">.dashed {stroke-dasharray: 5,5} .dotted {stroke-dasharray: 1,5} .overlay {fill: none; pointer-events: all}</style><g><g transform="translate(4, 1409)"><polygon stroke="#fffffe" stroke-opacity="0" fill="#ffffff" points="-4,4 -4,-1409 1615.92,-1409 1615.92,4"></polygon><g class="subgraph"><title>cluster_G</title><path stroke="#000000" fill="#808080" fill-opacity="0.09411764705882353" d="M 20,-8 C 20,-8,1591.92,-8,1591.92,-8,1597.92,-8,1603.92,-14,1603.92,-20,1603.92,-20,1603.92,-1385,1603.92,-1385,1603.92,-1391,1597.92,-1397,1591.92,-1397,1591.92,-1397,20,-1397,20,-1397,14,-1397,8,-1391,8,-1385,8,-1385,8,-20,8,-20,8,-14,14,-8,20,-8"></path></g><g class="subgraph"><title>cluster_app__core__app</title><path stroke="#000000" fill="#808080" fill-opacity="0.09411764705882353" d="M 215.07,-1035 C 215.07,-1035,707.82,-1035,707.82,-1035,713.82,-1035,719.82,-1041,719.82,-1047,719.82,-1047,719.82,-1122,719.82,-1122,719.82,-1128,713.82,-1134,707.82,-1134,707.82,-1134,215.07,-1134,215.07,-1134,209.07,-1134,203.07,-1128,203.07,-1122,203.07,-1122,203.07,-1047,203.07,-1047,203.07,-1041,209.07,-1035,215.07,-1035"></path><text x="461.44" y="-1117.4" text-anchor="middle" font-family="'Times-Roman',serif" font-size="14" fill="#000000">app.core.app</text></g><g class="subgraph"><title>cluster_app__core__run</title><path stroke="#000000" fill="#808080" fill-opacity="0.09411764705882353" d="M 257.68,-892 C 257.68,-892,341.56,-892,341.56,-892,347.56,-892,353.56,-898,353.56,-904,353.56,-904,353.56,-1003,353.56,-1003,353.56,-1009,347.56,-1015,341.56,-1015,341.56,-1015,257.68,-1015,257.68,-1015,251.68,-1015,245.68,-1009,245.68,-1003,245.68,-1003,245.68,-904,245.68,-904,245.68,-898,251.68,-892,257.68,-892"></path><text x="299.62" y="-998.4" text-anchor="middle" font-family="'Times-Roman',serif" font-size="14" fill="#000000">app.core.run</text></g><g class="subgraph"><title>cluster_app__interface</title><path stroke="#000000" fill="#808080" fill-opacity="0.09411764705882353" d="M 507.37,-878 C 507.37,-878,1518.43,-878,1518.43,-878,1524.43,-878,1530.43,-884,1530.43,-890,1530.43,-890,1530.43,-965,1530.43,-965,1530.43,-971,1524.43,-977,1518.43,-977,1518.43,-977,507.37,-977,507.37,-977,501.37,-977,495.37,-971,495.37,-965,495.37,-965,495.37,-890,495.37,-890,495.37,-884,501.37,-878,507.37,-878"></path><text x="1012.9" y="-960.4" text-anchor="middle" font-family="'Times-Roman',serif" font-size="14" fill="#000000">app.interface</text></g><g class="subgraph"><title>cluster_app__parsers</title><path stroke="#000000" fill="#808080" fill-opacity="0.09411764705882353" d="M 185.36,-662 C 185.36,-662,742.47,-662,742.47,-662,748.47,-662,754.47,-668,754.47,-674,754.47,-674,754.47,-826,754.47,-826,754.47,-832,748.47,-838,742.47,-838,742.47,-838,185.36,-838,185.36,-838,179.36,-838,173.36,-832,173.36,-826,173.36,-826,173.36,-674,173.36,-674,173.36,-668,179.36,-662,185.36,-662"></path><text x="463.92" y="-821.4" text-anchor="middle" font-family="'Times-Roman',serif" font-size="14" fill="#000000">app.parsers</text></g><g class="subgraph"><title>cluster_app__processing_backends</title><path stroke="#000000" fill="#808080" fill-opacity="0.09411764705882353" d="M 457.87,-1142 C 457.87,-1142,1583.92,-1142,1583.92,-1142,1589.92,-1142,1595.92,-1148,1595.92,-1154,1595.92,-1154,1595.92,-1377,1595.92,-1377,1595.92,-1383,1589.92,-1389,1583.92,-1389,1583.92,-1389,457.87,-1389,457.87,-1389,451.87,-1389,445.87,-1383,445.87,-1377,445.87,-1377,445.87,-1154,445.87,-1154,445.87,-1148,451.87,-1142,457.87,-1142"></path><text x="1020.9" y="-1372.4" text-anchor="middle" font-family="'Times-Roman',serif" font-size="14" fill="#000000">app.processing_backends</text></g><g class="subgraph"><title>cluster_app__processing_backends__with_backend</title><path stroke="#000000" fill="#808080" fill-opacity="0.09411764705882353" d="M 842.56,-1150 C 842.56,-1150,1575.92,-1150,1575.92,-1150,1581.92,-1150,1587.92,-1156,1587.92,-1162,1587.92,-1162,1587.92,-1278,1587.92,-1278,1587.92,-1284,1581.92,-1290,1575.92,-1290,1575.92,-1290,842.56,-1290,842.56,-1290,836.56,-1290,830.56,-1284,830.56,-1278,830.56,-1278,830.56,-1162,830.56,-1162,830.56,-1156,836.56,-1150,842.56,-1150"></path><text x="1209.24" y="-1273.4" text-anchor="middle" font-family="'Times-Roman',serif" font-size="14" fill="#000000">app.processing_backends.with_backend</text></g><g class="subgraph"><title>cluster_app__processing_backends__with_backend___injector_deco</title><path stroke="#000000" fill="#808080" fill-opacity="0.09411764705882353" d="M 1227.24,-1158 C 1227.24,-1158,1567.92,-1158,1567.92,-1158,1573.92,-1158,1579.92,-1164,1579.92,-1170,1579.92,-1170,1579.92,-1245,1579.92,-1245,1579.92,-1251,1573.92,-1257,1567.92,-1257,1567.92,-1257,1227.24,-1257,1227.24,-1257,1221.24,-1257,1215.24,-1251,1215.24,-1245,1215.24,-1245,1215.24,-1170,1215.24,-1170,1215.24,-1164,1221.24,-1158,1227.24,-1158"></path><text x="1397.58" y="-1240.4" text-anchor="middle" font-family="'Times-Roman',serif" font-size="14" fill="#000000">app.processing_backends.with_backend._injector_deco</text></g><g class="subgraph"><title>cluster_app__utils__ftp</title><path stroke="#000000" fill="#808080" fill-opacity="0.09411764705882353" d="M 213.4,-205 C 213.4,-205,1486.85,-205,1486.85,-205,1492.85,-205,1498.85,-211,1498.85,-217,1498.85,-217,1498.85,-630,1498.85,-630,1498.85,-636,1492.85,-642,1486.85,-642,1486.85,-642,213.4,-642,213.4,-642,207.4,-642,201.4,-636,201.4,-630,201.4,-630,201.4,-217,201.4,-217,201.4,-211,207.4,-205,213.4,-205"></path><text x="850.13" y="-625.4" text-anchor="middle" font-family="'Times-Roman',serif" font-size="14" fill="#000000">app.utils.ftp</text></g><g class="subgraph"><title>cluster_app__utils__ftp__FTPReader</title><path stroke="#000000" fill="#808080" fill-opacity="0.09411764705882353" d="M 925.32,-213 C 925.32,-213,1478.85,-213,1478.85,-213,1484.85,-213,1490.85,-219,1490.85,-225,1490.85,-225,1490.85,-454,1490.85,-454,1490.85,-460,1484.85,-466,1478.85,-466,1478.85,-466,925.32,-466,925.32,-466,919.32,-466,913.32,-460,913.32,-454,913.32,-454,913.32,-225,913.32,-225,913.32,-219,919.32,-213,925.32,-213"></path><text x="1202.09" y="-449.4" text-anchor="middle" font-family="'Times-Roman',serif" font-size="14" fill="#000000">app.utils.ftp.FTPReader</text></g><g class="subgraph"><title>cluster_app__utils__misc</title><path stroke="#000000" fill="#808080" fill-opacity="0.09411764705882353" d="M 210.65,-16 C 210.65,-16,1118.87,-16,1118.87,-16,1124.87,-16,1130.87,-22,1130.87,-28,1130.87,-28,1130.87,-185,1130.87,-185,1130.87,-191,1124.87,-197,1118.87,-197,1118.87,-197,210.65,-197,210.65,-197,204.65,-197,198.65,-191,198.65,-185,198.65,-185,198.65,-28,198.65,-28,198.65,-22,204.65,-16,210.65,-16"></path><text x="664.76" y="-180.4" text-anchor="middle" font-family="'Times-Roman',serif" font-size="14" fill="#000000">app.utils.misc</text></g><g class="subgraph"><title>cluster_app__utils__misc__cache</title><path stroke="#000000" fill="#808080" fill-opacity="0.09411764705882353" d="M 544.19,-24 C 544.19,-24,1110.87,-24,1110.87,-24,1116.87,-24,1122.87,-30,1122.87,-36,1122.87,-36,1122.87,-152,1122.87,-152,1122.87,-158,1116.87,-164,1110.87,-164,1110.87,-164,544.19,-164,544.19,-164,538.19,-164,532.19,-158,532.19,-152,532.19,-152,532.19,-36,532.19,-36,532.19,-30,538.19,-24,544.19,-24"></path><text x="827.53" y="-147.4" text-anchor="middle" font-family="'Times-Roman',serif" font-size="14" fill="#000000">app.utils.misc.cache</text></g><g class="subgraph"><title>cluster_app__utils__misc__cache___cache_deco</title><path stroke="#000000" fill="#808080" fill-opacity="0.09411764705882353" d="M 922.93,-32 C 922.93,-32,1102.87,-32,1102.87,-32,1108.87,-32,1114.87,-38,1114.87,-44,1114.87,-44,1114.87,-119,1114.87,-119,1114.87,-125,1108.87,-131,1102.87,-131,1102.87,-131,922.93,-131,922.93,-131,916.93,-131,910.93,-125,910.93,-119,910.93,-119,910.93,-44,910.93,-44,910.93,-38,916.93,-32,922.93,-32"></path><text x="1012.9" y="-114.4" text-anchor="middle" font-family="'Times-Roman',serif" font-size="14" fill="#000000">app.utils.misc.cache._cache_deco</text></g><g class="node"><title>app__core__app__main</title><path stroke="#000000" fill="#ff6565" fill-opacity="0.6980392156862745" d="M 299.62,-1072 m -88.6,0 a 88.6,29.33 0 1,0 177.2,0 a 88.6,29.33 0 1,0 -177.2,0"></path><text x="299.62" y="-1076.2" text-anchor="middle" font-family="'Times-Roman',serif" font-size="14" fill="#000000">main</text><text x="299.62" y="-1059.4" text-anchor="middle" font-family="'Times-Roman',serif" font-size="14" fill="#000000">(appcoreapp.py:48)</text></g><g class="node"><title>app__core__app__parse_app_args</title><path stroke="#000000" fill="#ff6565" fill-opacity="0.6980392156862745" d="M 628.22,-1072 m -83.7,0 a 83.7,29.33 0 1,0 167.4,0 a 83.7,29.33 0 1,0 -167.4,0"></path><text x="628.22" y="-1076.2" text-anchor="middle" font-family="'Times-Roman',serif" font-size="14" fill="#000000">parse_app_args</text><text x="628.22" y="-1059.4" text-anchor="middle" font-family="'Times-Roman',serif" font-size="14" fill="#000000">(appcoreapp.py:9)</text></g><g class="node"><title>app__core__run__run</title><path stroke="#000000" fill="#ffd865" fill-opacity="0.6980392156862745" d="M 299.62,-941 m -45.87,0 a 45.87,41.09 0 1,0 91.74,0 a 45.87,41.09 0 1,0 -91.74,0"></path><text x="299.62" y="-953.6" text-anchor="middle" font-family="'Times-Roman',serif" font-size="14" fill="#000000">run</text><text x="324.1" y="-936.8" text-anchor="end" font-family="'Times-Roman',serif" font-size="14" fill="#000000">(appcore</text><text x="299.62" y="-920" text-anchor="middle" font-family="'Times-Roman',serif" font-size="14" fill="#000000">un.py:4)</text></g><g class="node"><title>app__interface__build_bootstrap_parser</title><path stroke="#000000" fill="#ccff99" fill-opacity="0.6980392156862745" d="M 1397.58,-915 m -124.69,0 a 124.69,29.33 0 1,0 249.38,0 a 124.69,29.33 0 1,0 -249.38,0"></path><text x="1397.58" y="-919.2" text-anchor="middle" font-family="'Times-Roman',serif" font-size="14" fill="#000000">build_bootstrap_parser</text><text x="1397.58" y="-902.4" text-anchor="middle" font-family="'Times-Roman',serif" font-size="14" fill="#000000">(appinterface__init__.py:10)</text></g><g class="node"><title>app__interface__get_interface</title><path stroke="#000000" fill="#ccff99" fill-opacity="0.6980392156862745" d="M 628.22,-915 m -124.69,0 a 124.69,29.33 0 1,0 249.38,0 a 124.69,29.33 0 1,0 -249.38,0"></path><text x="628.22" y="-919.2" text-anchor="middle" font-family="'Times-Roman',serif" font-size="14" fill="#000000">get_interface</text><text x="628.22" y="-902.4" text-anchor="middle" font-family="'Times-Roman',serif" font-size="14" fill="#000000">(appinterface__init__.py:37)</text></g><g class="node"><title>app__interface__read_bootstrap_args</title><path stroke="#000000" fill="#ccff99" fill-opacity="0.6980392156862745" d="M 1012.9,-915 m -124.69,0 a 124.69,29.33 0 1,0 249.38,0 a 124.69,29.33 0 1,0 -249.38,0"></path><text x="1012.9" y="-919.2" text-anchor="middle" font-family="'Times-Roman',serif" font-size="14" fill="#000000">read_bootstrap_args</text><text x="1012.9" y="-902.4" text-anchor="middle" font-family="'Times-Roman',serif" font-size="14" fill="#000000">(appinterface__init__.py:26)</text></g><g class="node"><title>app__parsers__get_parser</title><path stroke="#000000" fill="#99ffb2" fill-opacity="0.6980392156862745" d="M 628.22,-699 m -118.01,0 a 118.01,29.33 0 1,0 236.02,0 a 118.01,29.33 0 1,0 -236.02,0"></path><text x="628.22" y="-703.2" text-anchor="middle" font-family="'Times-Roman',serif" font-size="14" fill="#000000">get_parser</text><text x="628.22" y="-686.4" text-anchor="middle" font-family="'Times-Roman',serif" font-size="14" fill="#000000">(appparsers__init__.py:11)</text></g><g class="node"><title>app__parsers__infer_format</title><path stroke="#000000" fill="#99ffb2" fill-opacity="0.6980392156862745" d="M 299.62,-776 m -118.01,0 a 118.01,29.33 0 1,0 236.02,0 a 118.01,29.33 0 1,0 -236.02,0"></path><text x="299.62" y="-780.2" text-anchor="middle" font-family="'Times-Roman',serif" font-size="14" fill="#000000">infer_format</text><text x="299.62" y="-763.4" text-anchor="middle" font-family="'Times-Roman',serif" font-size="14" fill="#000000">(appparsers__init__.py:18)</text></g><g class="node"><title>app__parsers__parse_format</title><path stroke="#000000" fill="#99ffb2" fill-opacity="0.6980392156862745" d="M 299.62,-699 m -118.01,0 a 118.01,29.33 0 1,0 236.02,0 a 118.01,29.33 0 1,0 -236.02,0"></path><text x="299.62" y="-703.2" text-anchor="middle" font-family="'Times-Roman',serif" font-size="14" fill="#000000">parse_format</text><text x="299.62" y="-686.4" text-anchor="middle" font-family="'Times-Roman',serif" font-size="14" fill="#000000">(appparsers__init__.py:29)</text></g><g class="node"><title>app__processing_backends__with_backend___injector_deco___injector_wrapper</title><path stroke="#000000" fill="#32feff" fill-opacity="0.6980392156862745" d="M 1397.58,-1195 m -174.18,0 a 174.18,29.33 0 1,0 348.36,0 a 174.18,29.33 0 1,0 -348.36,0"></path><text x="1397.58" y="-1199.2" text-anchor="middle" font-family="'Times-Roman',serif" font-size="14" fill="#000000">_injector_wrapper</text><text x="1397.58" y="-1182.4" text-anchor="middle" font-family="'Times-Roman',serif" font-size="14" fill="#000000">(appprocessing_backends__init__.py:47)</text></g><g class="node"><title>app__processing_backends__with_backend___injector_deco</title><path stroke="#000000" fill="#65feff" fill-opacity="0.6980392156862745" d="M 1012.9,-1195 m -174.18,0 a 174.18,29.33 0 1,0 348.36,0 a 174.18,29.33 0 1,0 -348.36,0"></path><text x="1012.9" y="-1199.2" text-anchor="middle" font-family="'Times-Roman',serif" font-size="14" fill="#000000">_injector_deco</text><text x="1012.9" y="-1182.4" text-anchor="middle" font-family="'Times-Roman',serif" font-size="14" fill="#000000">(appprocessing_backends__init__.py:45)</text></g><g class="node"><title>app__processing_backends__get_backend</title><path stroke="#000000" fill="#99feff" fill-opacity="0.6980392156862745" d="M 1012.9,-1327 m -174.18,0 a 174.18,29.33 0 1,0 348.36,0 a 174.18,29.33 0 1,0 -348.36,0"></path><text x="1012.9" y="-1331.2" text-anchor="middle" font-family="'Times-Roman',serif" font-size="14" fill="#000000">get_backend</text><text x="1012.9" y="-1314.4" text-anchor="middle" font-family="'Times-Roman',serif" font-size="14" fill="#000000">(appprocessing_backends__init__.py:10)</text></g><g class="node"><title>app__processing_backends__process_item</title><path stroke="#000000" fill="#99feff" fill-opacity="0.6980392156862745" d="M 628.22,-1279 m -174.18,0 a 174.18,29.33 0 1,0 348.36,0 a 174.18,29.33 0 1,0 -348.36,0"></path><text x="628.22" y="-1283.2" text-anchor="middle" font-family="'Times-Roman',serif" font-size="14" fill="#000000">process_item</text><text x="628.22" y="-1266.4" text-anchor="middle" font-family="'Times-Roman',serif" font-size="14" fill="#000000">(appprocessing_backends__init__.py:29)</text></g><g class="node"><title>app__processing_backends__with_backend</title><path stroke="#000000" fill="#99feff" fill-opacity="0.6980392156862745" d="M 628.22,-1195 m -174.18,0 a 174.18,29.33 0 1,0 348.36,0 a 174.18,29.33 0 1,0 -348.36,0"></path><text x="628.22" y="-1199.2" text-anchor="middle" font-family="'Times-Roman',serif" font-size="14" fill="#000000">with_backend</text><text x="628.22" y="-1182.4" text-anchor="middle" font-family="'Times-Roman',serif" font-size="14" fill="#000000">(appprocessing_backends__init__.py:38)</text></g><g class="node"><title>app__utils__ftp__FTPReader____call__</title><path stroke="#000000" fill="#3265ff" fill-opacity="0.6980392156862745" d="M 1012.9,-404 m -85.05,0 a 85.05,29.33 0 1,0 170.1,0 a 85.05,29.33 0 1,0 -170.1,0"></path><text x="1012.9" y="-408.2" text-anchor="middle" font-family="'Times-Roman',serif" font-size="14" fill="#000000">__call__</text><text x="1012.9" y="-391.4" text-anchor="middle" font-family="'Times-Roman',serif" font-size="14" fill="#000000">(apputilsftp.py:47)</text></g><g class="node"><title>app__utils__ftp__FTPReader__ftp_read</title><path stroke="#000000" fill="#3265ff" fill-opacity="0.6980392156862745" d="M 1397.58,-404 m -85.05,0 a 85.05,29.33 0 1,0 170.1,0 a 85.05,29.33 0 1,0 -170.1,0"></path><text x="1397.58" y="-408.2" text-anchor="middle" font-family="'Times-Roman',serif" font-size="14" fill="#000000">ftp_read</text><text x="1397.58" y="-391.4" text-anchor="middle" font-family="'Times-Roman',serif" font-size="14" fill="#000000">(apputilsftp.py:44)</text></g><g class="node"><title>app__utils__ftp__FTPReader____init__</title><path stroke="#000000" fill="#3265ff" fill-opacity="0.6980392156862745" d="M 1012.9,-327 m -85.05,0 a 85.05,29.33 0 1,0 170.1,0 a 85.05,29.33 0 1,0 -170.1,0"></path><text x="1012.9" y="-331.2" text-anchor="middle" font-family="'Times-Roman',serif" font-size="14" fill="#000000">__init__</text><text x="1012.9" y="-314.4" text-anchor="middle" font-family="'Times-Roman',serif" font-size="14" fill="#000000">(apputilsftp.py:40)</text></g><g class="node"><title>app__utils__ftp__FTPReader__parse_to_raw_result</title><path stroke="#000000" fill="#3265ff" fill-opacity="0.6980392156862745" d="M 1012.9,-250 m -91.65,0 a 91.65,29.33 0 1,0 183.3,0 a 91.65,29.33 0 1,0 -183.3,0"></path><text x="1012.9" y="-254.2" text-anchor="middle" font-family="'Times-Roman',serif" font-size="14" fill="#000000">parse_to_raw_result</text><text x="1012.9" y="-237.4" text-anchor="middle" font-family="'Times-Roman',serif" font-size="14" fill="#000000">(apputilsftp.py:50)</text></g><g class="node"><title>app__utils__ftp__FTPReader</title><path stroke="#000000" fill="#658cff" fill-opacity="0.6980392156862745" d="M 628.22,-390 m -85.05,0 a 85.05,29.33 0 1,0 170.1,0 a 85.05,29.33 0 1,0 -170.1,0"></path><text x="628.22" y="-394.2" text-anchor="middle" font-family="'Times-Roman',serif" font-size="14" fill="#000000">FTPReader</text><text x="628.22" y="-377.4" text-anchor="middle" font-family="'Times-Roman',serif" font-size="14" fill="#000000">(apputilsftp.py:39)</text></g><g class="node"><title>app__utils__ftp__build_soft_ftp_url</title><path stroke="#000000" fill="#658cff" fill-opacity="0.6980392156862745" d="M 299.62,-472 m -85.05,0 a 85.05,29.33 0 1,0 170.1,0 a 85.05,29.33 0 1,0 -170.1,0"></path><text x="299.62" y="-476.2" text-anchor="middle" font-family="'Times-Roman',serif" font-size="14" fill="#000000">build_soft_ftp_url</text><text x="299.62" y="-459.4" text-anchor="middle" font-family="'Times-Roman',serif" font-size="14" fill="#000000">(apputilsftp.py:27)</text></g><g class="node"><title>app__utils__ftp__extract_ftp_links</title><path stroke="#000000" fill="#658cff" fill-opacity="0.6980392156862745" d="M 299.62,-395 m -85.05,0 a 85.05,29.33 0 1,0 170.1,0 a 85.05,29.33 0 1,0 -170.1,0"></path><text x="299.62" y="-399.2" text-anchor="middle" font-family="'Times-Roman',serif" font-size="14" fill="#000000">extract_ftp_links</text><text x="299.62" y="-382.4" text-anchor="middle" font-family="'Times-Roman',serif" font-size="14" fill="#000000">(apputilsftp.py:14)</text></g><g class="node"><title>app__utils__ftp__fetch_ftp</title><path stroke="#000000" fill="#658cff" fill-opacity="0.6980392156862745" d="M 299.62,-318 m -90.45,0 a 90.45,29.33 0 1,0 180.9,0 a 90.45,29.33 0 1,0 -180.9,0"></path><text x="299.62" y="-322.2" text-anchor="middle" font-family="'Times-Roman',serif" font-size="14" fill="#000000">fetch_ftp</text><text x="299.62" y="-305.4" text-anchor="middle" font-family="'Times-Roman',serif" font-size="14" fill="#000000">(apputilsftp.py:107)</text></g><g class="node"><title>app__utils__ftp__ftp_listdir</title><path stroke="#000000" fill="#658cff" fill-opacity="0.6980392156862745" d="M 628.22,-507 m -85.05,0 a 85.05,29.33 0 1,0 170.1,0 a 85.05,29.33 0 1,0 -170.1,0"></path><text x="628.22" y="-511.2" text-anchor="middle" font-family="'Times-Roman',serif" font-size="14" fill="#000000">ftp_listdir</text><text x="628.22" y="-494.4" text-anchor="middle" font-family="'Times-Roman',serif" font-size="14" fill="#000000">(apputilsftp.py:87)</text></g><g class="node"><title>app__utils__ftp__rebuild_client</title><path stroke="#000000" fill="#658cff" fill-opacity="0.6980392156862745" d="M 1012.9,-503 m -85.05,0 a 85.05,29.33 0 1,0 170.1,0 a 85.05,29.33 0 1,0 -170.1,0"></path><text x="1012.9" y="-507.2" text-anchor="middle" font-family="'Times-Roman',serif" font-size="14" fill="#000000">rebuild_client</text><text x="1012.9" y="-490.4" text-anchor="middle" font-family="'Times-Roman',serif" font-size="14" fill="#000000">(apputilsftp.py:74)</text></g><g class="node"><title>app__utils__ftp__ftp_switchcwd</title><path stroke="#000000" fill="#658cff" fill-opacity="0.6980392156862745" d="M 1012.9,-580 m -85.05,0 a 85.05,29.33 0 1,0 170.1,0 a 85.05,29.33 0 1,0 -170.1,0"></path><text x="1012.9" y="-584.2" text-anchor="middle" font-family="'Times-Roman',serif" font-size="14" fill="#000000">ftp_switchcwd</text><text x="1012.9" y="-567.4" text-anchor="middle" font-family="'Times-Roman',serif" font-size="14" fill="#000000">(apputilsftp.py:80)</text></g><g class="node"><title>app__utils__misc__cache___cache_deco___cache_wrapper</title><path stroke="#000000" fill="#7f00ff" fill-opacity="0.6980392156862745" d="M 1012.9,-69 m -92.95,0 a 92.95,29.33 0 1,0 185.9,0 a 92.95,29.33 0 1,0 -185.9,0"></path><text x="1012.9" y="-73.2" text-anchor="middle" font-family="'Times-Roman',serif" font-size="14" fill="#000000">_cache_wrapper</text><text x="1012.9" y="-56.4" text-anchor="middle" font-family="'Times-Roman',serif" font-size="14" fill="#000000">(apputilsmisc.py:15)</text></g><g class="node"><title>app__utils__misc__cache___cache_deco</title><path stroke="#000000" fill="#9832ff" fill-opacity="0.6980392156862745" d="M 628.22,-85 m -88.05,0 a 88.05,29.33 0 1,0 176.1,0 a 88.05,29.33 0 1,0 -176.1,0"></path><text x="628.22" y="-89.2" text-anchor="middle" font-family="'Times-Roman',serif" font-size="14" fill="#000000">_cache_deco</text><text x="628.22" y="-72.4" text-anchor="middle" font-family="'Times-Roman',serif" font-size="14" fill="#000000">(apputilsmisc.py:9)</text></g><g class="node"><title>app__utils__misc__cache</title><path stroke="#000000" fill="#b265ff" fill-opacity="0.6980392156862745" d="M 299.62,-130 m -88.05,0 a 88.05,29.33 0 1,0 176.1,0 a 88.05,29.33 0 1,0 -176.1,0"></path><text x="299.62" y="-134.2" text-anchor="middle" font-family="'Times-Roman',serif" font-size="14" fill="#000000">cache</text><text x="299.62" y="-117.4" text-anchor="middle" font-family="'Times-Roman',serif" font-size="14" fill="#000000">(apputilsmisc.py:7)</text></g><g class="node"><title>app__utils__misc__to_jsonl</title><path stroke="#000000" fill="#b265ff" fill-opacity="0.6980392156862745" d="M 299.62,-53 m -92.95,0 a 92.95,29.33 0 1,0 185.9,0 a 92.95,29.33 0 1,0 -185.9,0"></path><text x="299.62" y="-57.2" text-anchor="middle" font-family="'Times-Roman',serif" font-size="14" fill="#000000">to_jsonl</text><text x="299.62" y="-40.4" text-anchor="middle" font-family="'Times-Roman',serif" font-size="14" fill="#000000">(apputilsmisc.py:33)</text></g><g class="node"><title>app__core__app</title><path stroke="#000000" fill="#ffffff" fill-opacity="0.6980392156862745" d="M 80.68,-1072 m -60.24,0 a 60.24,18 0 1,0 120.48,0 a 60.24,18 0 1,0 -120.48,0"></path><text x="80.68" y="-1067.8" text-anchor="middle" font-family="'Times-Roman',serif" font-size="14" fill="#000000">app.core.app</text></g><g class="node"><title>app__core__run</title><path stroke="#000000" fill="#ffffff" fill-opacity="0.6980392156862745" d="M 80.68,-941 m -59.09,0 a 59.09,18 0 1,0 118.18,0 a 59.09,18 0 1,0 -118.18,0"></path><text x="80.68" y="-936.8" text-anchor="middle" font-family="'Times-Roman',serif" font-size="14" fill="#000000">app.core.run</text></g><g class="node"><title>app__interface</title><path stroke="#000000" fill="#ffffff" fill-opacity="0.6980392156862745" d="M 299.62,-864 m -61.33,0 a 61.33,18 0 1,0 122.66,0 a 61.33,18 0 1,0 -122.66,0"></path><text x="299.62" y="-859.8" text-anchor="middle" font-family="'Times-Roman',serif" font-size="14" fill="#000000">app.interface</text></g><g class="node"><title>app__parsers</title><path stroke="#000000" fill="#ffffff" fill-opacity="0.6980392156862745" d="M 80.68,-699 m -54.98,0 a 54.98,18 0 1,0 109.96,0 a 54.98,18 0 1,0 -109.96,0"></path><text x="80.68" y="-694.8" text-anchor="middle" font-family="'Times-Roman',serif" font-size="14" fill="#000000">app.parsers</text></g><g class="node"><title>app__processing_backends</title><path stroke="#000000" fill="#ffffff" fill-opacity="0.6980392156862745" d="M 299.62,-1279 m -109.4,0 a 109.4,18 0 1,0 218.8,0 a 109.4,18 0 1,0 -218.8,0"></path><text x="299.62" y="-1274.8" text-anchor="middle" font-family="'Times-Roman',serif" font-size="14" fill="#000000">app.processing_backends</text></g><g class="node"><title>app__utils__ftp</title><path stroke="#000000" fill="#ffffff" fill-opacity="0.6980392156862745" d="M 80.68,-520 m -57.34,0 a 57.34,18 0 1,0 114.68,0 a 57.34,18 0 1,0 -114.68,0"></path><text x="80.68" y="-515.8" text-anchor="middle" font-family="'Times-Roman',serif" font-size="14" fill="#000000">app.utils.ftp</text></g><g class="node"><title>app__utils__misc</title><path stroke="#000000" fill="#ffffff" fill-opacity="0.6980392156862745" d="M 80.68,-91 m -64.86,0 a 64.86,18 0 1,0 129.72,0 a 64.86,18 0 1,0 -129.72,0"></path><text x="80.68" y="-86.8" text-anchor="middle" font-family="'Times-Roman',serif" font-size="14" fill="#000000">app.utils.misc</text></g><g class="relation" style="opacity: 1;"><title>app__core__app__main-&gt;app__core__app__parse_app_args</title><path class="solid" stroke="#000000" fill="none" d="M 388.57,-1072 C 433.62,-1072,488.48,-1072,534.23,-1072"></path><path class="solid" stroke="#000000" fill="#000000" d="M 534.45,-1075.5 L 544.45,-1072,534.45,-1068.5 Z"></path></g><g class="relation" style="opacity: 1;"><title>app__interface__get_interface-&gt;app__interface__read_bootstrap_args</title><path class="solid" stroke="#000000" fill="none" d="M 753.2,-915 C 792.94,-915,837.14,-915,877.59,-915"></path><path class="solid" stroke="#000000" fill="#000000" d="M 877.79,-918.5 L 887.79,-915,877.79,-911.5 Z"></path></g><g class="relation" style="opacity: 1;"><title>app__interface__read_bootstrap_args-&gt;app__interface__build_bootstrap_parser</title><path class="solid" stroke="#000000" fill="none" d="M 1137.88,-915 C 1177.63,-915,1221.82,-915,1262.27,-915"></path><path class="solid" stroke="#000000" fill="#000000" d="M 1262.47,-918.5 L 1272.47,-915,1262.47,-911.5 Z"></path></g><g class="relation" style="opacity: 1;"><title>app__parsers__parse_format-&gt;app__parsers__get_parser</title><path class="solid" stroke="#000000" fill="none" d="M 418.07,-699 C 444.5,-699,472.67,-699,499.5,-699"></path><path class="solid" stroke="#000000" fill="#000000" d="M 499.71,-702.5 L 509.71,-699,499.71,-695.5 Z"></path></g><g class="relation" style="opacity: 1;"><title>app__processing_backends__with_backend___injector_deco-&gt;app__processing_backends__with_backend___injector_deco___injector_wrapper</title><path class="dashed" stroke="#838b8b" fill="none" d="M 1182.86,-1188.29 C 1194.4,-1188.25,1206.05,-1188.24,1217.63,-1188.26"></path><path class="solid" stroke="#838b8b" fill="#838b8b" d="M 1217.79,-1191.76 L 1227.8,-1188.29,1217.81,-1184.76 Z"></path><path class="solid" stroke="#000000" fill="none" d="M 1182.86,-1201.71 C 1194.4,-1201.75,1206.05,-1201.76,1217.63,-1201.74"></path><path class="solid" stroke="#000000" fill="#000000" d="M 1217.81,-1205.24 L 1227.8,-1201.71,1217.79,-1198.24 Z"></path></g><g class="relation" style="opacity: 1;"><title>app__processing_backends__process_item-&gt;app__processing_backends__get_backend</title><path class="solid" stroke="#000000" fill="none" d="M 768.73,-1296.5 C 799.18,-1300.32,831.53,-1304.38,862.36,-1308.24"></path><path class="solid" stroke="#000000" fill="#000000" d="M 861.95,-1311.72 L 872.31,-1309.49,862.82,-1304.77 Z"></path></g><g class="relation" style="opacity: 1;"><title>app__processing_backends__with_backend-&gt;app__processing_backends__with_backend___injector_deco</title><path class="dashed" stroke="#838b8b" fill="none" d="M 798.18,-1188.29 C 809.72,-1188.25,821.36,-1188.24,832.95,-1188.26"></path><path class="solid" stroke="#838b8b" fill="#838b8b" d="M 833.1,-1191.76 L 843.11,-1188.29,833.12,-1184.76 Z"></path><path class="solid" stroke="#000000" fill="none" d="M 798.18,-1201.71 C 809.72,-1201.75,821.36,-1201.76,832.95,-1201.74"></path><path class="solid" stroke="#000000" fill="#000000" d="M 833.12,-1205.24 L 843.11,-1201.71,833.1,-1198.24 Z"></path></g><g class="relation" style="opacity: 1;"><title>app__utils__ftp__FTPReader____call__-&gt;app__utils__ftp__FTPReader__ftp_read</title><path class="solid" stroke="#000000" fill="none" d="M 1098.35,-404 C 1158.51,-404,1239.41,-404,1301.78,-404"></path><path class="solid" stroke="#000000" fill="#000000" d="M 1302.01,-407.5 L 1312.01,-404,1302.01,-400.5 Z"></path></g><g class="relation" style="opacity: 1;"><title>app__utils__ftp__FTPReader-&gt;app__utils__ftp__FTPReader____call__</title><path class="dashed" stroke="#838b8b" fill="none" d="M 713.2,-393.07 C 773.53,-395.28,854.93,-398.26,917.51,-400.55"></path><path class="solid" stroke="#838b8b" fill="#838b8b" d="M 917.66,-404.05 L 927.78,-400.92,917.92,-397.06 Z"></path></g><g class="relation" style="opacity: 1;"><title>app__utils__ftp__FTPReader-&gt;app__utils__ftp__FTPReader____init__</title><path class="dashed" stroke="#838b8b" fill="none" d="M 705.74,-377.4 C 769.22,-366.95,859.47,-352.09,925.53,-341.22"></path><path class="solid" stroke="#838b8b" fill="#838b8b" d="M 926.21,-344.65 L 935.51,-339.58,925.07,-337.75 Z"></path></g><g class="relation" style="opacity: 1;"><title>app__utils__ftp__FTPReader-&gt;app__utils__ftp__FTPReader__ftp_read</title><path class="dashed" stroke="#838b8b" fill="none" d="M 690.56,-410.15 C 730.05,-422.05,782.74,-435.93,830.56,-442,987.82,-461.98,1029.35,-456.21,1187.24,-442,1229.96,-438.15,1277,-429.98,1315.65,-422.19"></path><path class="solid" stroke="#838b8b" fill="#838b8b" d="M 1316.7,-425.55 L 1325.8,-420.12,1315.3,-418.69 Z"></path></g><g class="relation" style="opacity: 1;"><title>app__utils__ftp__FTPReader-&gt;app__utils__ftp__FTPReader__parse_to_raw_result</title><path class="dashed" stroke="#838b8b" fill="none" d="M 671.81,-364.64 C 711.63,-341.9,773.38,-309.12,830.56,-289,859.09,-278.96,891.09,-271.04,920.18,-265.03"></path><path class="solid" stroke="#838b8b" fill="#838b8b" d="M 921.23,-268.39 L 930.34,-262.98,919.85,-261.53 Z"></path></g><g class="relation" style="opacity: 1;"><title>app__utils__ftp__fetch_ftp-&gt;app__utils__ftp__FTPReader</title><path class="solid" stroke="#000000" fill="none" d="M 374.73,-334.34 C 425.74,-345.58,493.49,-360.52,545.97,-372.09"></path><path class="solid" stroke="#000000" fill="#000000" d="M 545.4,-375.55 L 555.92,-374.28,546.91,-368.71 Z"></path></g><g class="relation" style="opacity: 1;"><title>app__utils__ftp__fetch_ftp-&gt;app__utils__ftp__ftp_listdir</title><path class="solid" stroke="#000000" fill="none" d="M 378.73,-332.17 C 393.26,-337.86,407.2,-345.83,417.87,-357,449.46,-390.06,413.52,-423.69,445.87,-456,469.26,-479.35,502.45,-492.22,534.05,-499.23"></path><path class="solid" stroke="#000000" fill="#000000" d="M 533.74,-502.74 L 544.24,-501.31,535.14,-495.88 Z"></path></g><g class="relation" style="opacity: 1;"><title>app__utils__ftp__fetch_ftp-&gt;app__utils__ftp__rebuild_client</title><path class="solid" stroke="#000000" fill="none" d="M 377.58,-332.9 C 392.28,-338.54,406.58,-346.31,417.87,-357,442.5,-380.32,418.97,-407.34,445.87,-428,509.16,-476.59,723.53,-458.05,802.56,-469,843.4,-474.66,888.57,-481.88,926.47,-488.2"></path><path class="solid" stroke="#000000" fill="#000000" d="M 926.01,-491.67 L 936.45,-489.87,927.16,-484.77 Z"></path></g><g class="relation" style="opacity: 1;"><title>app__utils__ftp__fetch_ftp-&gt;app__utils__ftp__FTPReader____init__</title><path class="solid" stroke="#000000" fill="none" d="M 389.98,-319.13 C 524.94,-320.84,779.59,-324.06,917.47,-325.81"></path><path class="solid" stroke="#000000" fill="#000000" d="M 917.56,-329.31 L 927.6,-325.93,917.64,-322.31 Z"></path></g><g class="relation" style="opacity: 1;"><title>app__utils__ftp__fetch_ftp-&gt;app__utils__ftp__FTPReader__parse_to_raw_result</title><path class="solid" stroke="#000000" fill="none" d="M 386.42,-309.8 C 519.52,-297.07,774.96,-272.65,914.69,-259.29"></path><path class="solid" stroke="#000000" fill="#000000" d="M 915.34,-262.75 L 924.96,-258.31,914.68,-255.78 Z"></path></g><g class="relation" style="opacity: 1;"><title>app__utils__ftp__ftp_listdir-&gt;app__utils__ftp__ftp_switchcwd</title><path class="solid" stroke="#000000" fill="none" d="M 703.45,-521.12 C 734.13,-526.96,770.06,-533.8,802.56,-540,843.76,-547.86,889.53,-556.6,927.73,-563.9"></path><path class="solid" stroke="#000000" fill="#000000" d="M 927.31,-567.39 L 937.78,-565.83,928.62,-560.51 Z"></path></g><g class="relation" style="opacity: 1;"><title>app__utils__ftp__ftp_listdir-&gt;app__utils__ftp__rebuild_client</title><path class="solid" stroke="#000000" fill="none" d="M 713.67,-506.12 C 773.93,-505.49,855.01,-504.64,917.42,-503.99"></path><path class="solid" stroke="#000000" fill="#000000" d="M 917.7,-507.48 L 927.66,-503.88,917.62,-500.49 Z"></path></g><g class="relation" style="opacity: 1;"><title>app__utils__misc__cache___cache_deco-&gt;app__utils__misc__cache___cache_deco___cache_wrapper</title><path class="dashed" stroke="#838b8b" fill="none" d="M 712.25,-75.85 C 770.24,-72.13,848.03,-68.76,909.81,-67.22"></path><path class="solid" stroke="#838b8b" fill="#838b8b" d="M 910.06,-70.71 L 919.98,-66.98,909.9,-63.72 Z"></path><path class="solid" stroke="#000000" fill="none" d="M 716.05,-87.13 C 775.17,-85.91,853.48,-82.7,914.69,-79.03"></path><path class="solid" stroke="#000000" fill="#000000" d="M 914.98,-82.52 L 924.74,-78.41,914.55,-75.53 Z"></path></g><g class="relation" style="opacity: 1;"><title>app__utils__misc__cache-&gt;app__utils__misc__cache___cache_deco</title><path class="dashed" stroke="#838b8b" fill="none" d="M 373.91,-114.16 C 420.55,-106.57,481.43,-98.02,531.81,-91.94"></path><path class="solid" stroke="#838b8b" fill="#838b8b" d="M 532.23,-95.42 L 541.74,-90.76,531.4,-88.47 Z"></path><path class="solid" stroke="#000000" fill="none" d="M 386,-124.25 C 434.7,-118.53,495.48,-110.15,543.84,-102.46"></path><path class="solid" stroke="#000000" fill="#000000" d="M 544.64,-105.88 L 553.96,-100.83,543.53,-98.97 Z"></path></g><g class="relation" style="opacity: 1;"><title>app__core__app-&gt;app__core__app__main</title><path class="dashed" stroke="#838b8b" fill="none" d="M 141.25,-1072 C 159.6,-1072,180.31,-1072,200.53,-1072"></path><path class="solid" stroke="#838b8b" fill="#838b8b" d="M 200.73,-1075.5 L 210.73,-1072,200.73,-1068.5 Z"></path></g><g class="relation" style="opacity: 1;"><title>app__core__app-&gt;app__core__app__parse_app_args</title><path class="dashed" stroke="#838b8b" fill="none" d="M 111.3,-1056.23 C 128.81,-1047.81,151.73,-1038.31,173.36,-1034,303.98,-1008,459.19,-1032.67,550.09,-1052.58"></path><path class="solid" stroke="#838b8b" fill="#838b8b" d="M 549.51,-1056.04 L 560.04,-1054.8,551.04,-1049.2 Z"></path></g><g class="relation" style="opacity: 1;"><title>app__core__app-&gt;app__processing_backends__with_backend</title><path class="solid" stroke="#000000" fill="none" d="M 99.69,-1089.22 C 117.07,-1104.75,144.89,-1126.81,173.36,-1138,258.68,-1171.53,359.33,-1186.41,444.14,-1192.64"></path><path class="solid" stroke="#000000" fill="#000000" d="M 443.92,-1196.13 L 454.14,-1193.34,444.41,-1189.15 Z"></path></g><g class="relation" style="opacity: 1;"><title>app__core__run-&gt;app__core__run__run</title><path class="dashed" stroke="#838b8b" fill="none" d="M 136.7,-935.04 C 169.44,-933.99,210.83,-933.99,243.57,-935.04"></path><path class="solid" stroke="#838b8b" fill="#838b8b" d="M 243.75,-938.55 L 253.87,-935.42,244.01,-931.55 Z"></path><path class="solid" stroke="#000000" fill="none" d="M 136.7,-946.96 C 169.44,-948.01,210.83,-948.01,243.57,-946.96"></path><path class="solid" stroke="#000000" fill="#000000" d="M 244.01,-950.45 L 253.87,-946.58,243.75,-943.45 Z"></path></g><g class="relation" style="opacity: 1;"><title>app__interface-&gt;app__interface__build_bootstrap_parser</title><path class="dashed" stroke="#838b8b" fill="none" d="M 360.02,-860.8 C 503.03,-853.98,877.54,-841.4,1187.24,-877,1222.23,-881.02,1260.19,-887.32,1294.06,-893.64"></path><path class="solid" stroke="#838b8b" fill="#838b8b" d="M 1293.48,-897.09 L 1303.96,-895.51,1294.78,-890.21 Z"></path></g><g class="relation" style="opacity: 1;"><title>app__interface-&gt;app__interface__get_interface</title><path class="dashed" stroke="#838b8b" fill="none" d="M 354.18,-872.36 C 397.37,-879.11,459.62,-888.83,513.77,-897.28"></path><path class="solid" stroke="#838b8b" fill="#838b8b" d="M 513.36,-900.76 L 523.78,-898.85,514.44,-893.85 Z"></path></g><g class="relation" style="opacity: 1;"><title>app__interface-&gt;app__interface__read_bootstrap_args</title><path class="dashed" stroke="#838b8b" fill="none" d="M 360.69,-862.58 C 455.05,-861.03,643.66,-860.62,802.56,-877,803.27,-877.07,852.77,-886.06,903.44,-895.27"></path><path class="solid" stroke="#838b8b" fill="#838b8b" d="M 903.12,-898.77 L 913.58,-897.11,904.37,-891.88 Z"></path></g><g class="relation" style="opacity: 1;"><title>app__parsers-&gt;app__parsers__get_parser</title><path class="dashed" stroke="#838b8b" fill="none" d="M 110.48,-683.62 C 128.1,-675.1,151.4,-665.37,173.36,-661,279.94,-639.79,309.64,-651.26,417.87,-661,418.61,-661.07,470.37,-670.46,522.24,-679.89"></path><path class="solid" stroke="#838b8b" fill="#838b8b" d="M 521.79,-683.37 L 532.25,-681.71,523.04,-676.48 Z"></path></g><g class="relation" style="opacity: 1;"><title>app__parsers-&gt;app__parsers__infer_format</title><path class="dashed" stroke="#838b8b" fill="none" d="M 114.07,-713.27 C 131.49,-720.73,153.44,-729.79,173.36,-737,186.12,-741.62,199.71,-746.2,213.07,-750.51"></path><path class="solid" stroke="#838b8b" fill="#838b8b" d="M 212.15,-753.89 L 222.74,-753.59,214.28,-747.22 Z"></path></g><g class="relation" style="opacity: 1;"><title>app__parsers-&gt;app__parsers__parse_format</title><path class="dashed" stroke="#838b8b" fill="none" d="M 135.59,-699 C 146.68,-699,158.79,-699,171.26,-699"></path><path class="solid" stroke="#838b8b" fill="#838b8b" d="M 171.31,-702.5 L 181.31,-699,171.31,-695.5 Z"></path></g><g class="relation" style="opacity: 1;"><title>app__processing_backends-&gt;app__processing_backends__get_backend</title><path class="dashed" stroke="#838b8b" fill="none" d="M 350.11,-1295.08 C 377.92,-1303.32,413.47,-1312.54,445.87,-1317,575,-1334.77,722.25,-1336.81,834.19,-1334.65"></path><path class="solid" stroke="#838b8b" fill="#838b8b" d="M 834.3,-1338.15 L 844.22,-1334.45,834.15,-1331.15 Z"></path></g><g class="relation" style="opacity: 1;"><title>app__processing_backends-&gt;app__processing_backends__process_item</title><path class="dashed" stroke="#838b8b" fill="none" d="M 409.37,-1279 C 420.42,-1279,431.85,-1279,443.42,-1279"></path><path class="solid" stroke="#838b8b" fill="#838b8b" d="M 443.61,-1282.5 L 453.61,-1279,443.61,-1275.5 Z"></path></g><g class="relation" style="opacity: 1;"><title>app__processing_backends-&gt;app__processing_backends__with_backend</title><path class="dashed" stroke="#838b8b" fill="none" d="M 358.55,-1263.74 C 385.15,-1256.76,417.1,-1248.41,445.87,-1241,469.92,-1234.8,495.79,-1228.21,520.23,-1222"></path><path class="solid" stroke="#838b8b" fill="#838b8b" d="M 521.41,-1225.31 L 530.25,-1219.46,519.69,-1218.52 Z"></path></g><g class="relation" style="opacity: 1;"><title>app__utils__ftp-&gt;app__utils__ftp__FTPReader</title><path class="dashed" stroke="#838b8b" fill="none" d="M 138,-521.09 C 227.37,-522.41,394.05,-523.03,417.87,-510,437.23,-499.41,428.87,-483.07,445.87,-469,476.71,-443.49,517.05,-424.83,551.85,-412.08"></path><path class="solid" stroke="#838b8b" fill="#838b8b" d="M 553.27,-415.29 L 561.51,-408.63,550.92,-408.69 Z"></path></g><g class="relation" style="opacity: 1;"><title>app__utils__ftp-&gt;app__utils__ftp__build_soft_ftp_url</title><path class="dashed" stroke="#838b8b" fill="none" d="M 127.95,-509.76 C 153.89,-504.02,187,-496.7,217.13,-490.03"></path><path class="solid" stroke="#838b8b" fill="#838b8b" d="M 218.22,-493.37 L 227.22,-487.8,216.7,-486.54 Z"></path></g><g class="relation" style="opacity: 1;"><title>app__utils__ftp-&gt;app__utils__ftp__extract_ftp_links</title><path class="dashed" stroke="#838b8b" fill="none" d="M 96.1,-502.35 C 112.81,-482.99,142.06,-452.24,173.36,-434,187.13,-425.98,202.73,-419.42,218.14,-414.14"></path><path class="solid" stroke="#838b8b" fill="#838b8b" d="M 219.27,-417.45 L 227.68,-411.01,217.09,-410.8 Z"></path></g><g class="relation" style="opacity: 1;"><title>app__utils__ftp-&gt;app__utils__ftp__fetch_ftp</title><path class="dashed" stroke="#838b8b" fill="none" d="M 86.92,-501.88 C 97.56,-468.29,124.9,-396.2,173.36,-357,184.44,-348.04,197.59,-341.13,211.12,-335.8"></path><path class="solid" stroke="#838b8b" fill="#838b8b" d="M 212.35,-339.08 L 220.54,-332.36,209.95,-332.51 Z"></path></g><g class="relation" style="opacity: 1;"><title>app__utils__ftp-&gt;app__utils__ftp__ftp_listdir</title><path class="dashed" stroke="#838b8b" fill="none" d="M 136.93,-523.5 C 148.94,-524.13,161.57,-524.68,173.36,-525,281.99,-527.96,309.3,-529.66,417.87,-525,456.68,-523.33,499.43,-519.94,536.12,-516.54"></path><path class="solid" stroke="#838b8b" fill="#838b8b" d="M 536.67,-520.01 L 546.3,-515.59,536.01,-513.04 Z"></path></g><g class="relation" style="opacity: 1;"><title>app__utils__ftp-&gt;app__utils__ftp__ftp_switchcwd</title><path class="dashed" stroke="#838b8b" fill="none" d="M 118.63,-533.67 C 135.14,-539.15,154.98,-544.9,173.36,-548,440.61,-593.13,762.28,-589.56,918.13,-584.25"></path><path class="solid" stroke="#838b8b" fill="#838b8b" d="M 918.28,-587.74 L 928.16,-583.89,918.04,-580.75 Z"></path></g><g class="relation" style="opacity: 1;"><title>app__utils__ftp-&gt;app__utils__ftp__rebuild_client</title><path class="dashed" stroke="#838b8b" fill="none" d="M 133,-527.48 C 146.13,-529.18,160.25,-530.83,173.36,-532,451.96,-556.83,524.23,-572.65,802.56,-545,846.24,-540.66,894.3,-531.35,933.34,-522.59"></path><path class="solid" stroke="#838b8b" fill="#838b8b" d="M 934.61,-525.9 L 943.59,-520.26,933.06,-519.07 Z"></path></g><g class="relation" style="opacity: 1;"><title>app__utils__misc-&gt;app__utils__misc__cache</title><path class="dashed" stroke="#838b8b" fill="none" d="M 135.31,-100.64 C 158.35,-104.78,185.87,-109.73,211.69,-114.37"></path><path class="solid" stroke="#838b8b" fill="#838b8b" d="M 211.41,-117.88 L 221.87,-116.2,212.64,-110.99 Z"></path></g><g class="relation" style="opacity: 1;"><title>app__utils__misc-&gt;app__utils__misc__to_jsonl</title><path class="dashed" stroke="#838b8b" fill="none" d="M 135.86,-81.51 C 157.59,-77.7,183.24,-73.21,207.67,-68.93"></path><path class="solid" stroke="#838b8b" fill="#838b8b" d="M 208.44,-72.35 L 217.68,-67.18,207.23,-65.46 Z"></path></g><g class="relation" style="opacity: 1;"><title>app__core__app__main-&gt;app__processing_backends__process_item</title><path class="solid" stroke="#000000" fill="none" d="M 382.39,-1082.66 C 395.68,-1087.62,408.23,-1094.77,417.87,-1105,457.82,-1147.37,405.38,-1191.15,445.87,-1233,455.41,-1242.86,466.74,-1250.72,479.01,-1256.97"></path><path class="solid" stroke="#000000" fill="#000000" d="M 477.56,-1260.16 L 488.1,-1261.24,480.54,-1253.82 Z"></path></g><g class="relation" style="opacity: 1;"><title>app__core__run__run-&gt;app__interface__get_interface</title><path class="solid" stroke="#000000" fill="none" d="M 345.69,-937.41 C 385.39,-934.25,445.19,-929.49,499.47,-925.17"></path><path class="solid" stroke="#000000" fill="#000000" d="M 499.85,-928.65 L 509.54,-924.37,499.29,-921.67 Z"></path></g></g></g></svg>