<?xml version="1.0" encoding="UTF-8" standalone="no"?>
<!DOCTYPE svg PUBLIC "-//W3C//DTD SVG 1.1//EN" "http://www.w3.org/Graphics/SVG/1.1/DTD/svg11.dtd">
<!-- Generated by graphviz version 2.40.1 (20161225.0304)
 -->
<!-- Title: G Pages: 1 -->
<svg width="2323pt" height="1381pt" viewBox="0.00 0.00 2323.42 1381.00" xmlns="http://www.w3.org/2000/svg" xmlns:xlink="http://www.w3.org/1999/xlink">
<g id="graph0" class="graph" transform="scale(1 1) rotate(0) translate(4 1377)">
<title>G</title>
<polygon fill="#ffffff" stroke="transparent" points="-4,4 -4,-1377 2319.4151,-1377 2319.4151,4 -4,4"/>
<g id="clust1" class="cluster">
<title>cluster_G</title>
<path fill="#808080" fill-opacity="0.094118" stroke="#000000" d="M20,-8C20,-8 2303.4151,-8 2303.4151,-8 2309.4151,-8 2315.4151,-14 2315.4151,-20 2315.4151,-20 2315.4151,-1353 2315.4151,-1353 2315.4151,-1359 2309.4151,-1365 2303.4151,-1365 2303.4151,-1365 20,-1365 20,-1365 14,-1365 8,-1359 8,-1353 8,-1353 8,-20 8,-20 8,-14 14,-8 20,-8"/>
</g>
<g id="clust2" class="cluster">
<title>cluster_app__core__mainloop</title>
<path fill="#808080" fill-opacity="0.094118" stroke="#000000" d="M525.4939,-787C525.4939,-787 948.3717,-787 948.3717,-787 954.3717,-787 960.3717,-793 960.3717,-799 960.3717,-799 960.3717,-852 960.3717,-852 960.3717,-858 954.3717,-864 948.3717,-864 948.3717,-864 525.4939,-864 525.4939,-864 519.4939,-864 513.4939,-858 513.4939,-852 513.4939,-852 513.4939,-799 513.4939,-799 513.4939,-793 519.4939,-787 525.4939,-787"/>
<text text-anchor="middle" x="736.9328" y="-847.4" font-family="Times,serif" font-size="14.00" fill="#000000">app.core.mainloop</text>
</g>
<g id="clust3" class="cluster">
<title>cluster_app__core__run</title>
<path fill="#808080" fill-opacity="0.094118" stroke="#000000" d="M303.4081,-599C303.4081,-599 364.4081,-599 364.4081,-599 370.4081,-599 376.4081,-605 376.4081,-611 376.4081,-611 376.4081,-664 376.4081,-664 376.4081,-670 370.4081,-676 364.4081,-676 364.4081,-676 303.4081,-676 303.4081,-676 297.4081,-676 291.4081,-670 291.4081,-664 291.4081,-664 291.4081,-611 291.4081,-611 291.4081,-605 297.4081,-599 303.4081,-599"/>
<text text-anchor="middle" x="333.9081" y="-659.4" font-family="Times,serif" font-size="14.00" fill="#000000">app.core.run</text>
</g>
<g id="clust4" class="cluster">
<title>cluster_app__interface__core</title>
<path fill="#808080" fill-opacity="0.094118" stroke="#000000" d="M494.4053,-491C494.4053,-491 1298.754,-491 1298.754,-491 1304.754,-491 1310.754,-497 1310.754,-503 1310.754,-503 1310.754,-556 1310.754,-556 1310.754,-562 1304.754,-568 1298.754,-568 1298.754,-568 494.4053,-568 494.4053,-568 488.4053,-568 482.4053,-562 482.4053,-556 482.4053,-556 482.4053,-503 482.4053,-503 482.4053,-497 488.4053,-491 494.4053,-491"/>
<text text-anchor="middle" x="896.5797" y="-551.4" font-family="Times,serif" font-size="14.00" fill="#000000">app.interface.core</text>
</g>
<g id="clust5" class="cluster">
<title>cluster_app__parsers</title>
<path fill="#808080" fill-opacity="0.094118" stroke="#000000" d="M58.0601,-1226C58.0601,-1226 380.659,-1226 380.659,-1226 386.659,-1226 392.659,-1232 392.659,-1238 392.659,-1238 392.659,-1345 392.659,-1345 392.659,-1351 386.659,-1357 380.659,-1357 380.659,-1357 58.0601,-1357 58.0601,-1357 52.0601,-1357 46.0601,-1351 46.0601,-1345 46.0601,-1345 46.0601,-1238 46.0601,-1238 46.0601,-1232 52.0601,-1226 58.0601,-1226"/>
<text text-anchor="middle" x="219.3596" y="-1340.4" font-family="Times,serif" font-size="14.00" fill="#000000">app.parsers</text>
</g>
<g id="clust6" class="cluster">
<title>cluster_app__processing_backends</title>
<path fill="#808080" fill-opacity="0.094118" stroke="#000000" d="M820.0705,-576C820.0705,-576 1693.0244,-576 1693.0244,-576 1699.0244,-576 1705.0244,-582 1705.0244,-588 1705.0244,-588 1705.0244,-767 1705.0244,-767 1705.0244,-773 1699.0244,-779 1693.0244,-779 1693.0244,-779 820.0705,-779 820.0705,-779 814.0705,-779 808.0705,-773 808.0705,-767 808.0705,-767 808.0705,-588 808.0705,-588 808.0705,-582 814.0705,-576 820.0705,-576"/>
<text text-anchor="middle" x="1256.5475" y="-762.4" font-family="Times,serif" font-size="14.00" fill="#000000">app.processing_backends</text>
</g>
<g id="clust7" class="cluster">
<title>cluster_app__processing_backends__with_backend</title>
<path fill="#808080" fill-opacity="0.094118" stroke="#000000" d="M1138.2624,-628C1138.2624,-628 1685.0244,-628 1685.0244,-628 1691.0244,-628 1697.0244,-634 1697.0244,-640 1697.0244,-640 1697.0244,-734 1697.0244,-734 1697.0244,-740 1691.0244,-746 1685.0244,-746 1685.0244,-746 1138.2624,-746 1138.2624,-746 1132.2624,-746 1126.2624,-740 1126.2624,-734 1126.2624,-734 1126.2624,-640 1126.2624,-640 1126.2624,-634 1132.2624,-628 1138.2624,-628"/>
<text text-anchor="middle" x="1411.6434" y="-729.4" font-family="Times,serif" font-size="14.00" fill="#000000">app.processing_backends.with_backend</text>
</g>
<g id="clust8" class="cluster">
<title>cluster_app__processing_backends__with_backend___injector_deco</title>
<path fill="#808080" fill-opacity="0.094118" stroke="#000000" d="M1374.3825,-636C1374.3825,-636 1677.0244,-636 1677.0244,-636 1683.0244,-636 1689.0244,-642 1689.0244,-648 1689.0244,-648 1689.0244,-701 1689.0244,-701 1689.0244,-707 1683.0244,-713 1677.0244,-713 1677.0244,-713 1374.3825,-713 1374.3825,-713 1368.3825,-713 1362.3825,-707 1362.3825,-701 1362.3825,-701 1362.3825,-648 1362.3825,-648 1362.3825,-642 1368.3825,-636 1374.3825,-636"/>
<text text-anchor="middle" x="1525.7034" y="-696.4" font-family="Times,serif" font-size="14.00" fill="#000000">app.processing_backends.with_backend._injector_deco</text>
</g>
<g id="clust9" class="cluster">
<title>cluster_app__utils__decorators</title>
<path fill="#808080" fill-opacity="0.094118" stroke="#000000" d="M255.5785,-60C255.5785,-60 1062.0257,-60 1062.0257,-60 1068.0257,-60 1074.0257,-66 1074.0257,-72 1074.0257,-72 1074.0257,-459 1074.0257,-459 1074.0257,-465 1068.0257,-471 1062.0257,-471 1062.0257,-471 255.5785,-471 255.5785,-471 249.5785,-471 243.5785,-465 243.5785,-459 243.5785,-459 243.5785,-72 243.5785,-72 243.5785,-66 249.5785,-60 255.5785,-60"/>
<text text-anchor="middle" x="658.8021" y="-454.4" font-family="Times,serif" font-size="14.00" fill="#000000">app.utils.decorators</text>
</g>
<g id="clust10" class="cluster">
<title>cluster_app__utils__decorators__preflight_message</title>
<path fill="#808080" fill-opacity="0.094118" stroke="#000000" d="M462.7402,-320C462.7402,-320 1054.0257,-320 1054.0257,-320 1060.0257,-320 1066.0257,-326 1066.0257,-332 1066.0257,-332 1066.0257,-426 1066.0257,-426 1066.0257,-432 1060.0257,-438 1054.0257,-438 1054.0257,-438 462.7402,-438 462.7402,-438 456.7402,-438 450.7402,-432 450.7402,-426 450.7402,-426 450.7402,-332 450.7402,-332 450.7402,-326 456.7402,-320 462.7402,-320"/>
<text text-anchor="middle" x="758.383" y="-421.4" font-family="Times,serif" font-size="14.00" fill="#000000">app.utils.decorators.preflight_message</text>
</g>
<g id="clust11" class="cluster">
<title>cluster_app__utils__decorators__preflight_message___preflight_msg_deco</title>
<path fill="#808080" fill-opacity="0.094118" stroke="#000000" d="M716.5277,-328C716.5277,-328 1046.0257,-328 1046.0257,-328 1052.0257,-328 1058.0257,-334 1058.0257,-340 1058.0257,-340 1058.0257,-393 1058.0257,-393 1058.0257,-399 1052.0257,-405 1046.0257,-405 1046.0257,-405 716.5277,-405 716.5277,-405 710.5277,-405 704.5277,-399 704.5277,-393 704.5277,-393 704.5277,-340 704.5277,-340 704.5277,-334 710.5277,-328 716.5277,-328"/>
<text text-anchor="middle" x="881.2767" y="-388.4" font-family="Times,serif" font-size="14.00" fill="#000000">app.utils.decorators.preflight_message._preflight_msg_deco</text>
</g>
<g id="clust12" class="cluster">
<title>cluster_app__utils__decorators__result_to_json</title>
<path fill="#808080" fill-opacity="0.094118" stroke="#000000" d="M478.8239,-194C478.8239,-194 1031.2259,-194 1031.2259,-194 1037.2259,-194 1043.2259,-200 1043.2259,-206 1043.2259,-206 1043.2259,-300 1043.2259,-300 1043.2259,-306 1037.2259,-312 1031.2259,-312 1031.2259,-312 478.8239,-312 478.8239,-312 472.8239,-312 466.8239,-306 466.8239,-300 466.8239,-300 466.8239,-206 466.8239,-206 466.8239,-200 472.8239,-194 478.8239,-194"/>
<text text-anchor="middle" x="755.0249" y="-295.4" font-family="Times,serif" font-size="14.00" fill="#000000">app.utils.decorators.result_to_json</text>
</g>
<g id="clust13" class="cluster">
<title>cluster_app__utils__decorators__result_to_json___jsondump_deco</title>
<path fill="#808080" fill-opacity="0.094118" stroke="#000000" d="M740.3275,-202C740.3275,-202 1023.2259,-202 1023.2259,-202 1029.2259,-202 1035.2259,-208 1035.2259,-214 1035.2259,-214 1035.2259,-267 1035.2259,-267 1035.2259,-273 1029.2259,-279 1023.2259,-279 1023.2259,-279 740.3275,-279 740.3275,-279 734.3275,-279 728.3275,-273 728.3275,-267 728.3275,-267 728.3275,-214 728.3275,-214 728.3275,-208 734.3275,-202 740.3275,-202"/>
<text text-anchor="middle" x="881.7767" y="-262.4" font-family="Times,serif" font-size="14.00" fill="#000000">app.utils.decorators.result_to_json._jsondump_deco</text>
</g>
<g id="clust14" class="cluster">
<title>cluster_app__utils__decorators__with_print</title>
<path fill="#808080" fill-opacity="0.094118" stroke="#000000" d="M476.6829,-68C476.6829,-68 1022.0121,-68 1022.0121,-68 1028.0121,-68 1034.0121,-74 1034.0121,-80 1034.0121,-80 1034.0121,-174 1034.0121,-174 1034.0121,-180 1028.0121,-186 1022.0121,-186 1022.0121,-186 476.6829,-186 476.6829,-186 470.6829,-186 464.6829,-180 464.6829,-174 464.6829,-174 464.6829,-80 464.6829,-80 464.6829,-74 470.6829,-68 476.6829,-68"/>
<text text-anchor="middle" x="749.3475" y="-169.4" font-family="Times,serif" font-size="14.00" fill="#000000">app.utils.decorators.with_print</text>
</g>
<g id="clust15" class="cluster">
<title>cluster_app__utils__decorators__with_print___with_print_deco</title>
<path fill="#808080" fill-opacity="0.094118" stroke="#000000" d="M748.5413,-76C748.5413,-76 1014.0121,-76 1014.0121,-76 1020.0121,-76 1026.0121,-82 1026.0121,-88 1026.0121,-88 1026.0121,-141 1026.0121,-141 1026.0121,-147 1020.0121,-153 1014.0121,-153 1014.0121,-153 748.5413,-153 748.5413,-153 742.5413,-153 736.5413,-147 736.5413,-141 736.5413,-141 736.5413,-88 736.5413,-88 736.5413,-82 742.5413,-76 748.5413,-76"/>
<text text-anchor="middle" x="881.2767" y="-136.4" font-family="Times,serif" font-size="14.00" fill="#000000">app.utils.decorators.with_print._with_print_deco</text>
</g>
<g id="clust16" class="cluster">
<title>cluster_app__utils__ftp</title>
<path fill="#808080" fill-opacity="0.094118" stroke="#000000" d="M28,-872C28,-872 615.7294,-872 615.7294,-872 621.7294,-872 627.7294,-878 627.7294,-884 627.7294,-884 627.7294,-1206 627.7294,-1206 627.7294,-1212 621.7294,-1218 615.7294,-1218 615.7294,-1218 28,-1218 28,-1218 22,-1218 16,-1212 16,-1206 16,-1206 16,-884 16,-884 16,-878 22,-872 28,-872"/>
<text text-anchor="middle" x="321.8647" y="-1201.4" font-family="Times,serif" font-size="14.00" fill="#000000">app.utils.ftp</text>
</g>
<g id="clust17" class="cluster">
<title>cluster_app__utils__ftp__FTPReader</title>
<path fill="#808080" fill-opacity="0.094118" stroke="#000000" d="M248.076,-1000C248.076,-1000 591.0501,-1000 591.0501,-1000 597.0501,-1000 603.0501,-1006 603.0501,-1012 603.0501,-1012 603.0501,-1173 603.0501,-1173 603.0501,-1179 597.0501,-1185 591.0501,-1185 591.0501,-1185 248.076,-1185 248.076,-1185 242.076,-1185 236.076,-1179 236.076,-1173 236.076,-1173 236.076,-1012 236.076,-1012 236.076,-1006 242.076,-1000 248.076,-1000"/>
<text text-anchor="middle" x="419.563" y="-1168.4" font-family="Times,serif" font-size="14.00" fill="#000000">app.utils.ftp.FTPReader</text>
</g>
<g id="clust18" class="cluster">
<title>cluster_app__utils__misc</title>
<path fill="#808080" fill-opacity="0.094118" stroke="#000000" d="M1775.1777,-524C1775.1777,-524 2295.4151,-524 2295.4151,-524 2301.4151,-524 2307.4151,-530 2307.4151,-536 2307.4151,-536 2307.4151,-671 2307.4151,-671 2307.4151,-677 2301.4151,-683 2295.4151,-683 2295.4151,-683 1775.1777,-683 1775.1777,-683 1769.1777,-683 1763.1777,-677 1763.1777,-671 1763.1777,-671 1763.1777,-536 1763.1777,-536 1763.1777,-530 1769.1777,-524 1775.1777,-524"/>
<text text-anchor="middle" x="2035.2964" y="-666.4" font-family="Times,serif" font-size="14.00" fill="#000000">app.utils.misc</text>
</g>
<g id="clust19" class="cluster">
<title>cluster_app__utils__misc__cache</title>
<path fill="#808080" fill-opacity="0.094118" stroke="#000000" d="M1918.0165,-532C1918.0165,-532 2287.4151,-532 2287.4151,-532 2293.4151,-532 2299.4151,-538 2299.4151,-544 2299.4151,-544 2299.4151,-638 2299.4151,-638 2299.4151,-644 2293.4151,-650 2287.4151,-650 2287.4151,-650 1918.0165,-650 1918.0165,-650 1912.0165,-650 1906.0165,-644 1906.0165,-638 1906.0165,-638 1906.0165,-544 1906.0165,-544 1906.0165,-538 1912.0165,-532 1918.0165,-532"/>
<text text-anchor="middle" x="2102.7158" y="-633.4" font-family="Times,serif" font-size="14.00" fill="#000000">app.utils.misc.cache</text>
</g>
<g id="clust20" class="cluster">
<title>cluster_app__utils__misc__cache___cache_deco</title>
<path fill="#808080" fill-opacity="0.094118" stroke="#000000" d="M2098.8149,-540C2098.8149,-540 2279.4151,-540 2279.4151,-540 2285.4151,-540 2291.4151,-546 2291.4151,-552 2291.4151,-552 2291.4151,-605 2291.4151,-605 2291.4151,-611 2285.4151,-617 2279.4151,-617 2279.4151,-617 2098.8149,-617 2098.8149,-617 2092.8149,-617 2086.8149,-611 2086.8149,-605 2086.8149,-605 2086.8149,-552 2086.8149,-552 2086.8149,-546 2092.8149,-540 2098.8149,-540"/>
<text text-anchor="middle" x="2189.115" y="-600.4" font-family="Times,serif" font-size="14.00" fill="#000000">app.utils.misc.cache._cache_deco</text>
</g>
<!-- app__core__mainloop -->
<g id="node1" class="node">
<title>app__core__mainloop</title>
<ellipse fill="#ffffff" fill-opacity="0.698039" stroke="#000000" cx="333.4081" cy="-497" rx="82.811" ry="18"/>
<text text-anchor="middle" x="333.4081" y="-492.8" font-family="Times,serif" font-size="14.00" fill="#000000">app.core.mainloop</text>
</g>
<!-- app__core__run -->
<g id="node2" class="node">
<title>app__core__run</title>
<ellipse fill="#ffffff" fill-opacity="0.698039" stroke="#000000" cx="116.038" cy="-625" rx="59.0949" ry="18"/>
<text text-anchor="middle" x="116.038" y="-620.8" font-family="Times,serif" font-size="14.00" fill="#000000">app.core.run</text>
</g>
<!-- app__core__run&#45;&gt;app__core__mainloop -->
<g id="edge6" class="edge">
<title>app__core__run-&gt;app__core__mainloop</title>
<path fill="none" stroke="#000000" d="M132.1917,-607.3516C153.7641,-584.8141 194.1524,-546.0951 236.076,-524 244.5387,-519.5399 253.8143,-515.7546 263.1721,-512.5591"/>
<polygon fill="#000000" stroke="#000000" points="264.4655,-515.8201 272.9231,-509.4389 262.3321,-509.1531 264.4655,-515.8201"/>
</g>
<!-- app__interface__core -->
<g id="node3" class="node">
<title>app__interface__core</title>
<ellipse fill="#ffffff" fill-opacity="0.698039" stroke="#000000" cx="333.4081" cy="-551" rx="80.3957" ry="18"/>
<text text-anchor="middle" x="333.4081" y="-546.8" font-family="Times,serif" font-size="14.00" fill="#000000">app.interface.core</text>
</g>
<!-- app__core__run&#45;&gt;app__interface__core -->
<g id="edge4" class="edge">
<title>app__core__run-&gt;app__interface__core</title>
<path fill="none" stroke="#000000" d="M154.6267,-611.2899C178.1307,-602.991 208.791,-592.2577 236.076,-583 249.4951,-578.447 263.9879,-573.6288 277.5867,-569.1515"/>
<polygon fill="#000000" stroke="#000000" points="278.8942,-572.406 287.3025,-565.9601 276.7097,-565.7556 278.8942,-572.406"/>
</g>
<!-- app__processing_backends -->
<g id="node5" class="node">
<title>app__processing_backends</title>
<ellipse fill="#ffffff" fill-opacity="0.698039" stroke="#000000" cx="1525.2034" cy="-550" rx="109.399" ry="18"/>
<text text-anchor="middle" x="1525.2034" y="-545.8" font-family="Times,serif" font-size="14.00" fill="#000000">app.processing_backends</text>
</g>
<!-- app__core__run&#45;&gt;app__processing_backends -->
<g id="edge3" class="edge">
<title>app__core__run-&gt;app__processing_backends</title>
<path fill="none" stroke="#000000" d="M159.0359,-612.545C181.7644,-606.3971 210.2376,-599.3785 236.076,-595 277.1431,-588.0409 390.3932,-604.2414 422.7402,-578 455.6022,-551.3409 416.7019,-512.1398 450.7402,-487 527.6054,-430.2294 1216.1705,-473.3943 1310.754,-487 1367.2325,-495.1243 1429.5827,-514.7013 1472.4251,-529.8936"/>
<polygon fill="#000000" stroke="#000000" points="1471.4751,-533.2712 1482.0696,-533.3565 1473.8407,-526.683 1471.4751,-533.2712"/>
</g>
<!-- app__core__run__run -->
<g id="node11" class="node">
<title>app__core__run__run</title>
<ellipse fill="#ffcc65" fill-opacity="0.698039" stroke="#000000" cx="333.4081" cy="-625" rx="27" ry="18"/>
<text text-anchor="middle" x="333.4081" y="-620.8" font-family="Times,serif" font-size="14.00" fill="#000000">run</text>
</g>
<!-- app__core__run&#45;&gt;app__core__run__run -->
<g id="edge5" class="edge">
<title>app__core__run-&gt;app__core__run__run</title>
<path fill="none" stroke="#000000" d="M175.4353,-625C214.0002,-625 263.069,-625 296.2066,-625"/>
<polygon fill="#000000" stroke="#000000" points="296.3723,-628.5001 306.3723,-625 296.3722,-621.5001 296.3723,-628.5001"/>
</g>
<!-- app__parsers -->
<g id="node4" class="node">
<title>app__parsers</title>
<ellipse fill="#ffffff" fill-opacity="0.698039" stroke="#000000" cx="551.8414" cy="-1252" rx="54.9752" ry="18"/>
<text text-anchor="middle" x="551.8414" y="-1247.8" font-family="Times,serif" font-size="14.00" fill="#000000">app.parsers</text>
</g>
<!-- app__utils__misc -->
<g id="node8" class="node">
<title>app__utils__misc</title>
<ellipse fill="#ffffff" fill-opacity="0.698039" stroke="#000000" cx="1813.3347" cy="-496" rx="64.8641" ry="18"/>
<text text-anchor="middle" x="1813.3347" y="-491.8" font-family="Times,serif" font-size="14.00" fill="#000000">app.utils.misc</text>
</g>
<!-- app__processing_backends&#45;&gt;app__utils__misc -->
<g id="edge15" class="edge">
<title>app__processing_backends-&gt;app__utils__misc</title>
<path fill="none" stroke="#000000" d="M1597.5392,-536.4432C1644.3427,-527.6716 1704.7067,-516.3585 1749.6847,-507.9289"/>
<polygon fill="#000000" stroke="#000000" points="1750.4291,-511.3505 1759.6132,-506.0682 1749.1396,-504.4702 1750.4291,-511.3505"/>
</g>
<!-- app__utils__misc__cache -->
<g id="node43" class="node">
<title>app__utils__misc__cache</title>
<ellipse fill="#cc65ff" fill-opacity="0.698039" stroke="#000000" cx="1813.3347" cy="-604" rx="33.0237" ry="18"/>
<text text-anchor="middle" x="1813.3347" y="-599.8" font-family="Times,serif" font-size="14.00" fill="#000000">cache</text>
</g>
<!-- app__processing_backends&#45;&gt;app__utils__misc__cache -->
<g id="edge14" class="edge">
<title>app__processing_backends-&gt;app__utils__misc__cache</title>
<path fill="none" stroke="#000000" d="M1597.5392,-563.5568C1652.5956,-573.8751 1726.4165,-587.7103 1771.8839,-596.2315"/>
<polygon fill="#000000" stroke="#000000" points="1771.4968,-599.7198 1781.9705,-598.1219 1772.7863,-592.8396 1771.4968,-599.7198"/>
</g>
<!-- app__utils__decorators -->
<g id="node6" class="node">
<title>app__utils__decorators</title>
<ellipse fill="#ffffff" fill-opacity="0.698039" stroke="#000000" cx="333.4081" cy="-34" rx="86.8165" ry="18"/>
<text text-anchor="middle" x="333.4081" y="-29.8" font-family="Times,serif" font-size="14.00" fill="#000000">app.utils.decorators</text>
</g>
<!-- app__utils__ftp -->
<g id="node7" class="node">
<title>app__utils__ftp</title>
<ellipse fill="#ffffff" fill-opacity="0.698039" stroke="#000000" cx="116.038" cy="-68" rx="57.3418" ry="18"/>
<text text-anchor="middle" x="116.038" y="-63.8" font-family="Times,serif" font-size="14.00" fill="#000000">app.utils.ftp</text>
</g>
<!-- app__utils__ftp&#45;&gt;app__utils__decorators -->
<g id="edge27" class="edge">
<title>app__utils__ftp-&gt;app__utils__decorators</title>
<path fill="none" stroke="#000000" d="M167.2764,-59.9855C193.1003,-55.9463 224.9963,-50.9573 253.9143,-46.434"/>
<polygon fill="#000000" stroke="#000000" points="254.665,-49.8593 264.004,-44.8559 253.5832,-42.9434 254.665,-49.8593"/>
</g>
<!-- app__utils__decorators__with_print -->
<g id="node25" class="node">
<title>app__utils__decorators__with_print</title>
<ellipse fill="#65cbff" fill-opacity="0.698039" stroke="#000000" cx="333.4081" cy="-102" rx="51.0434" ry="18"/>
<text text-anchor="middle" x="333.4081" y="-97.8" font-family="Times,serif" font-size="14.00" fill="#000000">with_print</text>
</g>
<!-- app__utils__ftp&#45;&gt;app__utils__decorators__with_print -->
<g id="edge26" class="edge">
<title>app__utils__ftp-&gt;app__utils__decorators__with_print</title>
<path fill="none" stroke="#000000" d="M167.2764,-76.0145C199.9223,-81.1208 242.2721,-87.7449 276.0422,-93.0271"/>
<polygon fill="#000000" stroke="#000000" points="275.8061,-96.5326 286.2269,-94.6201 276.8879,-89.6167 275.8061,-96.5326"/>
</g>
<!-- app__core__mainloop__main -->
<g id="node9" class="node">
<title>app__core__mainloop__main</title>
<ellipse fill="#ff6565" fill-opacity="0.698039" stroke="#000000" cx="551.8414" cy="-813" rx="30.1958" ry="18"/>
<text text-anchor="middle" x="551.8414" y="-808.8" font-family="Times,serif" font-size="14.00" fill="#000000">main</text>
</g>
<!-- app__core__mainloop__parse_app_args -->
<g id="node10" class="node">
<title>app__core__mainloop__parse_app_args</title>
<ellipse fill="#ff6565" fill-opacity="0.698039" stroke="#000000" cx="881.2767" cy="-813" rx="71.1901" ry="18"/>
<text text-anchor="middle" x="881.2767" y="-808.8" font-family="Times,serif" font-size="14.00" fill="#000000">parse_app_args</text>
</g>
<!-- app__core__mainloop__main&#45;&gt;app__core__mainloop__parse_app_args -->
<g id="edge1" class="edge">
<title>app__core__mainloop__main-&gt;app__core__mainloop__parse_app_args</title>
<path fill="none" stroke="#000000" d="M582.2434,-813C631.2812,-813 729.4619,-813 799.9581,-813"/>
<polygon fill="#000000" stroke="#000000" points="800.1491,-816.5001 810.1491,-813 800.1491,-809.5001 800.1491,-816.5001"/>
</g>
<!-- app__processing_backends__process_item -->
<g id="node19" class="node">
<title>app__processing_backends__process_item</title>
<ellipse fill="#99ffdd" fill-opacity="0.698039" stroke="#000000" cx="881.2767" cy="-602" rx="61.975" ry="18"/>
<text text-anchor="middle" x="881.2767" y="-597.8" font-family="Times,serif" font-size="14.00" fill="#000000">process_item</text>
</g>
<!-- app__core__mainloop__main&#45;&gt;app__processing_backends__process_item -->
<g id="edge2" class="edge">
<title>app__core__mainloop__main-&gt;app__processing_backends__process_item</title>
<path fill="none" stroke="#000000" d="M561.2051,-795.657C581.8165,-759.3056 634.8734,-675.1769 704.5277,-635 736.0167,-616.837 775.432,-608.3698 809.0462,-604.5358"/>
<polygon fill="#000000" stroke="#000000" points="809.6849,-607.9888 819.2767,-603.4891 808.9724,-601.0252 809.6849,-607.9888"/>
</g>
<!-- app__core__run__run&#45;&gt;app__core__mainloop__main -->
<g id="edge7" class="edge">
<title>app__core__run__run-&gt;app__core__mainloop__main</title>
<path fill="none" stroke="#000000" d="M350.1855,-639.4399C388.2744,-672.222 481.4603,-752.4247 526.5639,-791.2443"/>
<polygon fill="#000000" stroke="#000000" points="524.5396,-794.1198 534.4021,-797.9904 529.1059,-788.8143 524.5396,-794.1198"/>
</g>
<!-- app__interface__core__get_interface -->
<g id="node13" class="node">
<title>app__interface__core__get_interface</title>
<ellipse fill="#cbff65" fill-opacity="0.698039" stroke="#000000" cx="551.8414" cy="-517" rx="61.3723" ry="18"/>
<text text-anchor="middle" x="551.8414" y="-512.8" font-family="Times,serif" font-size="14.00" fill="#000000">get_interface</text>
</g>
<!-- app__core__run__run&#45;&gt;app__interface__core__get_interface -->
<g id="edge8" class="edge">
<title>app__core__run__run-&gt;app__interface__core__get_interface</title>
<path fill="none" stroke="#000000" d="M359.9912,-620.9453C378.1826,-617.5774 402.5653,-611.8781 422.7402,-603 459.9462,-586.6273 498.1581,-559.6653 523.2559,-540.2925"/>
<polygon fill="#000000" stroke="#000000" points="525.5269,-542.9596 531.2441,-534.0398 521.2122,-537.4474 525.5269,-542.9596"/>
</g>
<!-- app__processing_backends__with_backend -->
<g id="node20" class="node">
<title>app__processing_backends__with_backend</title>
<ellipse fill="#99ffdd" fill-opacity="0.698039" stroke="#000000" cx="881.2767" cy="-662" rx="65.413" ry="18"/>
<text text-anchor="middle" x="881.2767" y="-657.8" font-family="Times,serif" font-size="14.00" fill="#000000">with_backend</text>
</g>
<!-- app__core__run__run&#45;&gt;app__processing_backends__with_backend -->
<g id="edge9" class="edge">
<title>app__core__run__run-&gt;app__processing_backends__with_backend</title>
<path fill="none" stroke="#000000" d="M360.577,-626.8348C441.7463,-632.3166 684.4346,-648.7064 807.6948,-657.0307"/>
<polygon fill="#000000" stroke="#000000" points="807.5876,-660.5313 817.8008,-657.7132 808.0594,-653.5472 807.5876,-660.5313"/>
</g>
<!-- app__interface__core__build_bootstrap_parser -->
<g id="node12" class="node">
<title>app__interface__core__build_bootstrap_parser</title>
<ellipse fill="#cbff65" fill-opacity="0.698039" stroke="#000000" cx="1202.6824" cy="-517" rx="100.1433" ry="18"/>
<text text-anchor="middle" x="1202.6824" y="-512.8" font-family="Times,serif" font-size="14.00" fill="#000000">build_bootstrap_parser</text>
</g>
<!-- app__interface__core__read_bootstrap_args -->
<g id="node14" class="node">
<title>app__interface__core__read_bootstrap_args</title>
<ellipse fill="#cbff65" fill-opacity="0.698039" stroke="#000000" cx="881.2767" cy="-517" rx="89.1684" ry="18"/>
<text text-anchor="middle" x="881.2767" y="-512.8" font-family="Times,serif" font-size="14.00" fill="#000000">read_bootstrap_args</text>
</g>
<!-- app__interface__core__get_interface&#45;&gt;app__interface__core__read_bootstrap_args -->
<g id="edge11" class="edge">
<title>app__interface__core__get_interface-&gt;app__interface__core__read_bootstrap_args</title>
<path fill="none" stroke="#000000" d="M613.4192,-517C660.6678,-517 726.8619,-517 781.6237,-517"/>
<polygon fill="#000000" stroke="#000000" points="781.7088,-520.5001 791.7088,-517 781.7088,-513.5001 781.7088,-520.5001"/>
</g>
<!-- app__interface__core__read_bootstrap_args&#45;&gt;app__interface__core__build_bootstrap_parser -->
<g id="edge10" class="edge">
<title>app__interface__core__read_bootstrap_args-&gt;app__interface__core__build_bootstrap_parser</title>
<path fill="none" stroke="#000000" d="M970.8061,-517C1008.4831,-517 1052.701,-517 1092.3635,-517"/>
<polygon fill="#000000" stroke="#000000" points="1092.6104,-520.5001 1102.6103,-517 1092.6103,-513.5001 1092.6104,-520.5001"/>
</g>
<!-- app__parsers__get_parser -->
<g id="node15" class="node">
<title>app__parsers__get_parser</title>
<ellipse fill="#99ff99" fill-opacity="0.698039" stroke="#000000" cx="333.4081" cy="-1252" rx="51.003" ry="18"/>
<text text-anchor="middle" x="333.4081" y="-1247.8" font-family="Times,serif" font-size="14.00" fill="#000000">get_parser</text>
</g>
<!-- app__parsers__get_parser&#45;&gt;app__parsers -->
<g id="edge12" class="edge">
<title>app__parsers__get_parser-&gt;app__parsers</title>
<path fill="none" stroke="#000000" d="M384.8972,-1252C415.2851,-1252 454.0401,-1252 486.5591,-1252"/>
<polygon fill="#000000" stroke="#000000" points="486.8796,-1255.5001 496.8796,-1252 486.8796,-1248.5001 486.8796,-1255.5001"/>
</g>
<!-- app__parsers__infer_format -->
<g id="node16" class="node">
<title>app__parsers__infer_format</title>
<ellipse fill="#99ff99" fill-opacity="0.698039" stroke="#000000" cx="116.038" cy="-1306" rx="59.6685" ry="18"/>
<text text-anchor="middle" x="116.038" y="-1301.8" font-family="Times,serif" font-size="14.00" fill="#000000">infer_format</text>
</g>
<!-- app__parsers__parse_format -->
<g id="node17" class="node">
<title>app__parsers__parse_format</title>
<ellipse fill="#99ff99" fill-opacity="0.698039" stroke="#000000" cx="116.038" cy="-1252" rx="61.9557" ry="18"/>
<text text-anchor="middle" x="116.038" y="-1247.8" font-family="Times,serif" font-size="14.00" fill="#000000">parse_format</text>
</g>
<!-- app__parsers__parse_format&#45;&gt;app__parsers__get_parser -->
<g id="edge13" class="edge">
<title>app__parsers__parse_format-&gt;app__parsers__get_parser</title>
<path fill="none" stroke="#000000" d="M178.0366,-1252C207.4464,-1252 242.4871,-1252 271.8414,-1252"/>
<polygon fill="#000000" stroke="#000000" points="271.9687,-1255.5001 281.9687,-1252 271.9686,-1248.5001 271.9687,-1255.5001"/>
</g>
<!-- app__processing_backends__get_backend -->
<g id="node18" class="node">
<title>app__processing_backends__get_backend</title>
<ellipse fill="#99ffdd" fill-opacity="0.698039" stroke="#000000" cx="1202.6824" cy="-602" rx="59.6762" ry="18"/>
<text text-anchor="middle" x="1202.6824" y="-597.8" font-family="Times,serif" font-size="14.00" fill="#000000">get_backend</text>
</g>
<!-- app__processing_backends__get_backend&#45;&gt;app__processing_backends -->
<g id="edge16" class="edge">
<title>app__processing_backends__get_backend-&gt;app__processing_backends</title>
<path fill="none" stroke="#000000" d="M1255.579,-593.4715C1304.739,-585.5454 1378.9055,-573.5876 1437.0169,-564.2183"/>
<polygon fill="#000000" stroke="#000000" points="1437.6178,-567.6667 1446.9331,-562.6195 1436.5035,-560.756 1437.6178,-567.6667"/>
</g>
<!-- app__processing_backends__process_item&#45;&gt;app__processing_backends__get_backend -->
<g id="edge17" class="edge">
<title>app__processing_backends__process_item-&gt;app__processing_backends__get_backend</title>
<path fill="none" stroke="#000000" d="M943.6281,-602C997.7625,-602 1076.0905,-602 1132.4272,-602"/>
<polygon fill="#000000" stroke="#000000" points="1132.6798,-605.5001 1142.6797,-602 1132.6797,-598.5001 1132.6798,-605.5001"/>
</g>
<!-- app__processing_backends__with_backend___injector_deco -->
<g id="node21" class="node">
<title>app__processing_backends__with_backend___injector_deco</title>
<ellipse fill="#65ffcc" fill-opacity="0.698039" stroke="#000000" cx="1202.6824" cy="-662" rx="68.3401" ry="18"/>
<text text-anchor="middle" x="1202.6824" y="-657.8" font-family="Times,serif" font-size="14.00" fill="#000000">_injector_deco</text>
</g>
<!-- app__processing_backends__with_backend&#45;&gt;app__processing_backends__with_backend___injector_deco -->
<g id="edge19" class="edge">
<title>app__processing_backends__with_backend-&gt;app__processing_backends__with_backend___injector_deco</title>
<path fill="none" stroke="#000000" d="M946.7054,-662C997.9172,-662 1069.332,-662 1123.7215,-662"/>
<polygon fill="#000000" stroke="#000000" points="1124.0155,-665.5001 1134.0155,-662 1124.0154,-658.5001 1124.0155,-665.5001"/>
</g>
<!-- app__processing_backends__with_backend___injector_deco___injector_wrapper -->
<g id="node22" class="node">
<title>app__processing_backends__with_backend___injector_deco___injector_wrapper</title>
<ellipse fill="#32ffbb" fill-opacity="0.698039" stroke="#000000" cx="1525.2034" cy="-662" rx="81.6423" ry="18"/>
<text text-anchor="middle" x="1525.2034" y="-657.8" font-family="Times,serif" font-size="14.00" fill="#000000">_injector_wrapper</text>
</g>
<!-- app__processing_backends__with_backend___injector_deco&#45;&gt;app__processing_backends__with_backend___injector_deco___injector_wrapper -->
<g id="edge18" class="edge">
<title>app__processing_backends__with_backend___injector_deco-&gt;app__processing_backends__with_backend___injector_deco___injector_wrapper</title>
<path fill="none" stroke="#000000" d="M1271.4756,-662C1318.5644,-662 1381.5407,-662 1432.9707,-662"/>
<polygon fill="#000000" stroke="#000000" points="1433.0947,-665.5001 1443.0946,-662 1433.0946,-658.5001 1433.0947,-665.5001"/>
</g>
<!-- app__utils__decorators__preflight_message -->
<g id="node23" class="node">
<title>app__utils__decorators__preflight_message</title>
<ellipse fill="#65cbff" fill-opacity="0.698039" stroke="#000000" cx="333.4081" cy="-354" rx="81.6596" ry="18"/>
<text text-anchor="middle" x="333.4081" y="-349.8" font-family="Times,serif" font-size="14.00" fill="#000000">preflight_message</text>
</g>
<!-- app__utils__decorators__preflight_message___preflight_msg_deco -->
<g id="node26" class="node">
<title>app__utils__decorators__preflight_message___preflight_msg_deco</title>
<ellipse fill="#32baff" fill-opacity="0.698039" stroke="#000000" cx="551.8414" cy="-354" rx="93.2026" ry="18"/>
<text text-anchor="middle" x="551.8414" y="-349.8" font-family="Times,serif" font-size="14.00" fill="#000000">_preflight_msg_deco</text>
</g>
<!-- app__utils__decorators__preflight_message&#45;&gt;app__utils__decorators__preflight_message___preflight_msg_deco -->
<g id="edge20" class="edge">
<title>app__utils__decorators__preflight_message-&gt;app__utils__decorators__preflight_message___preflight_msg_deco</title>
<path fill="none" stroke="#000000" d="M415.3661,-354C426.1175,-354 437.2454,-354 448.2957,-354"/>
<polygon fill="#000000" stroke="#000000" points="448.4091,-357.5001 458.409,-354 448.409,-350.5001 448.4091,-357.5001"/>
</g>
<!-- app__utils__decorators__result_to_json -->
<g id="node24" class="node">
<title>app__utils__decorators__result_to_json</title>
<ellipse fill="#65cbff" fill-opacity="0.698039" stroke="#000000" cx="333.4081" cy="-228" rx="65.5103" ry="18"/>
<text text-anchor="middle" x="333.4081" y="-223.8" font-family="Times,serif" font-size="14.00" fill="#000000">result_to_json</text>
</g>
<!-- app__utils__decorators__result_to_json___jsondump_deco -->
<g id="node28" class="node">
<title>app__utils__decorators__result_to_json___jsondump_deco</title>
<ellipse fill="#32baff" fill-opacity="0.698039" stroke="#000000" cx="551.8414" cy="-228" rx="77.0352" ry="18"/>
<text text-anchor="middle" x="551.8414" y="-223.8" font-family="Times,serif" font-size="14.00" fill="#000000">_jsondump_deco</text>
</g>
<!-- app__utils__decorators__result_to_json&#45;&gt;app__utils__decorators__result_to_json___jsondump_deco -->
<g id="edge24" class="edge">
<title>app__utils__decorators__result_to_json-&gt;app__utils__decorators__result_to_json___jsondump_deco</title>
<path fill="none" stroke="#000000" d="M399.2415,-228C419.7373,-228 442.667,-228 464.398,-228"/>
<polygon fill="#000000" stroke="#000000" points="464.6181,-231.5001 474.6181,-228 464.6181,-224.5001 464.6181,-231.5001"/>
</g>
<!-- app__utils__decorators__with_print___with_print_deco -->
<g id="node30" class="node">
<title>app__utils__decorators__with_print___with_print_deco</title>
<ellipse fill="#32baff" fill-opacity="0.698039" stroke="#000000" cx="551.8414" cy="-102" rx="79.3174" ry="18"/>
<text text-anchor="middle" x="551.8414" y="-97.8" font-family="Times,serif" font-size="14.00" fill="#000000">_with_print_deco</text>
</g>
<!-- app__utils__decorators__with_print&#45;&gt;app__utils__decorators__with_print___with_print_deco -->
<g id="edge22" class="edge">
<title>app__utils__decorators__with_print-&gt;app__utils__decorators__with_print___with_print_deco</title>
<path fill="none" stroke="#000000" d="M384.8972,-102C408.0484,-102 436.0561,-102 462.4627,-102"/>
<polygon fill="#000000" stroke="#000000" points="462.4915,-105.5001 472.4915,-102 462.4915,-98.5001 462.4915,-105.5001"/>
</g>
<!-- app__utils__decorators__preflight_message___preflight_msg_deco___preflightwrapper -->
<g id="node27" class="node">
<title>app__utils__decorators__preflight_message___preflight_msg_deco___preflightwrapper</title>
<ellipse fill="#00a9ff" fill-opacity="0.698039" stroke="#000000" cx="881.2767" cy="-354" rx="80.9988" ry="18"/>
<text text-anchor="middle" x="881.2767" y="-349.8" font-family="Times,serif" font-size="14.00" fill="#000000">_preflightwrapper</text>
</g>
<!-- app__utils__decorators__preflight_message___preflight_msg_deco&#45;&gt;app__utils__decorators__preflight_message___preflight_msg_deco___preflightwrapper -->
<g id="edge21" class="edge">
<title>app__utils__decorators__preflight_message___preflight_msg_deco-&gt;app__utils__decorators__preflight_message___preflight_msg_deco___preflightwrapper</title>
<path fill="none" stroke="#000000" d="M645.3632,-354C690.8137,-354 745.2196,-354 790.3247,-354"/>
<polygon fill="#000000" stroke="#000000" points="790.3912,-357.5001 800.3912,-354 790.3912,-350.5001 790.3912,-357.5001"/>
</g>
<!-- app__utils__decorators__result_to_json___jsondump_deco___resultwrapper -->
<g id="node29" class="node">
<title>app__utils__decorators__result_to_json___jsondump_deco___resultwrapper</title>
<ellipse fill="#00a9ff" fill-opacity="0.698039" stroke="#000000" cx="881.2767" cy="-228" rx="68.8984" ry="18"/>
<text text-anchor="middle" x="881.2767" y="-223.8" font-family="Times,serif" font-size="14.00" fill="#000000">_resultwrapper</text>
</g>
<!-- app__utils__decorators__result_to_json___jsondump_deco&#45;&gt;app__utils__decorators__result_to_json___jsondump_deco___resultwrapper -->
<g id="edge25" class="edge">
<title>app__utils__decorators__result_to_json___jsondump_deco-&gt;app__utils__decorators__result_to_json___jsondump_deco___resultwrapper</title>
<path fill="none" stroke="#000000" d="M629.0794,-228C681.0515,-228 749.392,-228 801.8212,-228"/>
<polygon fill="#000000" stroke="#000000" points="802.0854,-231.5001 812.0853,-228 802.0853,-224.5001 802.0854,-231.5001"/>
</g>
<!-- app__utils__decorators__with_print___with_print_deco___printwrapper -->
<g id="node31" class="node">
<title>app__utils__decorators__with_print___with_print_deco___printwrapper</title>
<ellipse fill="#00a9ff" fill-opacity="0.698039" stroke="#000000" cx="881.2767" cy="-102" rx="65.9716" ry="18"/>
<text text-anchor="middle" x="881.2767" y="-97.8" font-family="Times,serif" font-size="14.00" fill="#000000">_printwrapper</text>
</g>
<!-- app__utils__decorators__with_print___with_print_deco&#45;&gt;app__utils__decorators__with_print___with_print_deco___printwrapper -->
<g id="edge23" class="edge">
<title>app__utils__decorators__with_print___with_print_deco-&gt;app__utils__decorators__with_print___with_print_deco___printwrapper</title>
<path fill="none" stroke="#000000" d="M631.1686,-102C684.0018,-102 753.0353,-102 805.1881,-102"/>
<polygon fill="#000000" stroke="#000000" points="805.3839,-105.5001 815.3838,-102 805.3838,-98.5001 805.3839,-105.5001"/>
</g>
<!-- app__utils__ftp__FTPReader -->
<g id="node32" class="node">
<title>app__utils__ftp__FTPReader</title>
<ellipse fill="#6565ff" fill-opacity="0.698039" stroke="#000000" cx="333.4081" cy="-898" rx="55.0323" ry="18"/>
<text text-anchor="middle" x="333.4081" y="-893.8" font-family="Times,serif" font-size="14.00" fill="#000000">FTPReader</text>
</g>
<!-- app__utils__ftp__build_matrix_ftp_url -->
<g id="node33" class="node">
<title>app__utils__ftp__build_matrix_ftp_url</title>
<ellipse fill="#6565ff" fill-opacity="0.698039" stroke="#000000" cx="116.038" cy="-1149" rx="92.076" ry="18"/>
<text text-anchor="middle" x="116.038" y="-1144.8" font-family="Times,serif" font-size="14.00" fill="#000000">build_matrix_ftp_url</text>
</g>
<!-- app__utils__ftp__extract_ftp_links -->
<g id="node34" class="node">
<title>app__utils__ftp__extract_ftp_links</title>
<ellipse fill="#6565ff" fill-opacity="0.698039" stroke="#000000" cx="116.038" cy="-1078" rx="76.442" ry="18"/>
<text text-anchor="middle" x="116.038" y="-1073.8" font-family="Times,serif" font-size="14.00" fill="#000000">extract_ftp_links</text>
</g>
<!-- app__utils__ftp__fetch_ftp -->
<g id="node35" class="node">
<title>app__utils__ftp__fetch_ftp</title>
<ellipse fill="#6565ff" fill-opacity="0.698039" stroke="#000000" cx="116.038" cy="-989" rx="45.7848" ry="18"/>
<text text-anchor="middle" x="116.038" y="-984.8" font-family="Times,serif" font-size="14.00" fill="#000000">fetch_ftp</text>
</g>
<!-- app__utils__ftp__fetch_ftp&#45;&gt;app__utils__ftp__FTPReader -->
<g id="edge33" class="edge">
<title>app__utils__ftp__fetch_ftp-&gt;app__utils__ftp__FTPReader</title>
<path fill="none" stroke="#000000" d="M160.9607,-985.0972C176.9246,-982.0211 194.3283,-976.5821 208.076,-967 226.481,-954.1717 217.9047,-938.1572 236.076,-925 246.8852,-917.1734 259.8692,-911.6141 272.7797,-907.6656"/>
<polygon fill="#000000" stroke="#000000" points="273.8957,-910.9885 282.6008,-904.9494 272.0297,-904.2417 273.8957,-910.9885"/>
</g>
<!-- app__utils__ftp__ftp_listdir -->
<g id="node36" class="node">
<title>app__utils__ftp__ftp_listdir</title>
<ellipse fill="#6565ff" fill-opacity="0.698039" stroke="#000000" cx="333.4081" cy="-952" rx="49.2512" ry="18"/>
<text text-anchor="middle" x="333.4081" y="-947.8" font-family="Times,serif" font-size="14.00" fill="#000000">ftp_listdir</text>
</g>
<!-- app__utils__ftp__fetch_ftp&#45;&gt;app__utils__ftp__ftp_listdir -->
<g id="edge35" class="edge">
<title>app__utils__ftp__fetch_ftp-&gt;app__utils__ftp__ftp_listdir</title>
<path fill="none" stroke="#000000" d="M158.2069,-981.8222C192.5138,-975.9825 241.1878,-967.6974 278.5291,-961.3413"/>
<polygon fill="#000000" stroke="#000000" points="279.4685,-964.7318 288.7394,-959.6034 278.2938,-957.8311 279.4685,-964.7318"/>
</g>
<!-- app__utils__ftp__rebuild_client -->
<g id="node38" class="node">
<title>app__utils__ftp__rebuild_client</title>
<ellipse fill="#6565ff" fill-opacity="0.698039" stroke="#000000" cx="551.8414" cy="-974" rx="64.8447" ry="18"/>
<text text-anchor="middle" x="551.8414" y="-969.8" font-family="Times,serif" font-size="14.00" fill="#000000">rebuild_client</text>
</g>
<!-- app__utils__ftp__fetch_ftp&#45;&gt;app__utils__ftp__rebuild_client -->
<g id="edge32" class="edge">
<title>app__utils__ftp__fetch_ftp-&gt;app__utils__ftp__rebuild_client</title>
<path fill="none" stroke="#000000" d="M162.0261,-987.5883C222.0154,-985.7266 330.2334,-982.2994 422.7402,-979 440.5307,-978.3655 459.6986,-977.6438 477.68,-976.95"/>
<polygon fill="#000000" stroke="#000000" points="477.9629,-980.4418 487.8198,-976.557 477.6917,-973.447 477.9629,-980.4418"/>
</g>
<!-- app__utils__ftp__FTPReader____init__ -->
<g id="node40" class="node">
<title>app__utils__ftp__FTPReader____init__</title>
<ellipse fill="#3232ff" fill-opacity="0.698039" stroke="#000000" cx="333.4081" cy="-1080" rx="43.461" ry="18"/>
<text text-anchor="middle" x="333.4081" y="-1075.8" font-family="Times,serif" font-size="14.00" fill="#000000">__init__</text>
</g>
<!-- app__utils__ftp__fetch_ftp&#45;&gt;app__utils__ftp__FTPReader____init__ -->
<g id="edge34" class="edge">
<title>app__utils__ftp__fetch_ftp-&gt;app__utils__ftp__FTPReader____init__</title>
<path fill="none" stroke="#000000" d="M141.0167,-1004.4086C164.7737,-1018.5525 201.8646,-1039.3272 236.076,-1053 251.571,-1059.1927 268.9947,-1064.5121 284.7724,-1068.7519"/>
<polygon fill="#000000" stroke="#000000" points="284.3068,-1072.2473 294.8661,-1071.3804 286.0709,-1065.4732 284.3068,-1072.2473"/>
</g>
<!-- app__utils__ftp__FTPReader__parse_to_raw_result -->
<g id="node42" class="node">
<title>app__utils__ftp__FTPReader__parse_to_raw_result</title>
<ellipse fill="#3232ff" fill-opacity="0.698039" stroke="#000000" cx="333.4081" cy="-1026" rx="89.1646" ry="18"/>
<text text-anchor="middle" x="333.4081" y="-1021.8" font-family="Times,serif" font-size="14.00" fill="#000000">parse_to_raw_result</text>
</g>
<!-- app__utils__ftp__fetch_ftp&#45;&gt;app__utils__ftp__FTPReader__parse_to_raw_result -->
<g id="edge31" class="edge">
<title>app__utils__ftp__fetch_ftp-&gt;app__utils__ftp__FTPReader__parse_to_raw_result</title>
<path fill="none" stroke="#000000" d="M158.2069,-996.1778C185.6192,-1000.8439 222.2043,-1007.0713 254.8515,-1012.6284"/>
<polygon fill="#000000" stroke="#000000" points="254.3969,-1016.1012 264.8424,-1014.329 255.5715,-1009.2005 254.3969,-1016.1012"/>
</g>
<!-- app__utils__ftp__ftp_switchcwd -->
<g id="node37" class="node">
<title>app__utils__ftp__ftp_switchcwd</title>
<ellipse fill="#6565ff" fill-opacity="0.698039" stroke="#000000" cx="551.8414" cy="-920" rx="67.776" ry="18"/>
<text text-anchor="middle" x="551.8414" y="-915.8" font-family="Times,serif" font-size="14.00" fill="#000000">ftp_switchcwd</text>
</g>
<!-- app__utils__ftp__ftp_listdir&#45;&gt;app__utils__ftp__ftp_switchcwd -->
<g id="edge30" class="edge">
<title>app__utils__ftp__ftp_listdir-&gt;app__utils__ftp__ftp_switchcwd</title>
<path fill="none" stroke="#000000" d="M379.1989,-945.2918C409.0159,-940.9236 448.4848,-935.1415 482.1578,-930.2085"/>
<polygon fill="#000000" stroke="#000000" points="483.0179,-933.6199 492.4049,-928.7073 482.0032,-926.6939 483.0179,-933.6199"/>
</g>
<!-- app__utils__ftp__ftp_listdir&#45;&gt;app__utils__ftp__rebuild_client -->
<g id="edge29" class="edge">
<title>app__utils__ftp__ftp_listdir-&gt;app__utils__ftp__rebuild_client</title>
<path fill="none" stroke="#000000" d="M380.8049,-956.7737C410.0287,-959.717 448.0575,-963.5472 480.8333,-966.8483"/>
<polygon fill="#000000" stroke="#000000" points="480.5205,-970.3344 490.8209,-967.8542 481.222,-963.3696 480.5205,-970.3344"/>
</g>
<!-- app__utils__ftp__FTPReader____call__ -->
<g id="node39" class="node">
<title>app__utils__ftp__FTPReader____call__</title>
<ellipse fill="#3232ff" fill-opacity="0.698039" stroke="#000000" cx="333.4081" cy="-1134" rx="44.0833" ry="18"/>
<text text-anchor="middle" x="333.4081" y="-1129.8" font-family="Times,serif" font-size="14.00" fill="#000000">__call__</text>
</g>
<!-- app__utils__ftp__FTPReader__ftp_read -->
<g id="node41" class="node">
<title>app__utils__ftp__FTPReader__ftp_read</title>
<ellipse fill="#3232ff" fill-opacity="0.698039" stroke="#000000" cx="551.8414" cy="-1134" rx="43.4183" ry="18"/>
<text text-anchor="middle" x="551.8414" y="-1129.8" font-family="Times,serif" font-size="14.00" fill="#000000">ftp_read</text>
</g>
<!-- app__utils__ftp__FTPReader____call__&#45;&gt;app__utils__ftp__FTPReader__ftp_read -->
<g id="edge28" class="edge">
<title>app__utils__ftp__FTPReader____call__-&gt;app__utils__ftp__FTPReader__ftp_read</title>
<path fill="none" stroke="#000000" d="M377.8746,-1134C412.7647,-1134 461.4526,-1134 498.4504,-1134"/>
<polygon fill="#000000" stroke="#000000" points="498.5545,-1137.5001 508.5545,-1134 498.5545,-1130.5001 498.5545,-1137.5001"/>
</g>
<!-- app__utils__misc__cache___cache_deco -->
<g id="node45" class="node">
<title>app__utils__misc__cache___cache_deco</title>
<ellipse fill="#bb32ff" fill-opacity="0.698039" stroke="#000000" cx="1974.9157" cy="-582" rx="60.7985" ry="18"/>
<text text-anchor="middle" x="1974.9157" y="-577.8" font-family="Times,serif" font-size="14.00" fill="#000000">_cache_deco</text>
</g>
<!-- app__utils__misc__cache&#45;&gt;app__utils__misc__cache___cache_deco -->
<g id="edge37" class="edge">
<title>app__utils__misc__cache-&gt;app__utils__misc__cache___cache_deco</title>
<path fill="none" stroke="#000000" d="M1845.6447,-599.6008C1863.9338,-597.1107 1887.4828,-593.9044 1909.4601,-590.9121"/>
<polygon fill="#000000" stroke="#000000" points="1909.9863,-594.3728 1919.4226,-589.5556 1909.0418,-587.4368 1909.9863,-594.3728"/>
</g>
<!-- app__utils__misc__to_jsonl -->
<g id="node44" class="node">
<title>app__utils__misc__to_jsonl</title>
<ellipse fill="#cc65ff" fill-opacity="0.698039" stroke="#000000" cx="1813.3347" cy="-550" rx="42.3145" ry="18"/>
<text text-anchor="middle" x="1813.3347" y="-545.8" font-family="Times,serif" font-size="14.00" fill="#000000">to_jsonl</text>
</g>
<!-- app__utils__misc__cache___cache_deco___cache_wrapper -->
<g id="node46" class="node">
<title>app__utils__misc__cache___cache_deco___cache_wrapper</title>
<ellipse fill="#aa00ff" fill-opacity="0.698039" stroke="#000000" cx="2189.115" cy="-566" rx="74.1008" ry="18"/>
<text text-anchor="middle" x="2189.115" y="-561.8" font-family="Times,serif" font-size="14.00" fill="#000000">_cache_wrapper</text>
</g>
<!-- app__utils__misc__cache___cache_deco&#45;&gt;app__utils__misc__cache___cache_deco___cache_wrapper -->
<g id="edge36" class="edge">
<title>app__utils__misc__cache___cache_deco-&gt;app__utils__misc__cache___cache_deco___cache_wrapper</title>
<path fill="none" stroke="#000000" d="M2034.0136,-577.5856C2056.8692,-575.8783 2083.4022,-573.8964 2107.9911,-572.0597"/>
<polygon fill="#000000" stroke="#000000" points="2108.3177,-575.5451 2118.0292,-571.3099 2107.7962,-568.5646 2108.3177,-575.5451"/>
</g>
</g>
</svg>